<svg width="471" height="393" viewBox="0 0 471 393" fill="none" xmlns="http://www.w3.org/2000/svg">
<path d="M470.78 392.63C470.78 392.77 365.38 392.89 235.4 392.89C105.42 392.89 0 392.77 0 392.63C0 392.49 105.37 392.36 235.4 392.36C365.43 392.36 470.78 392.48 470.78 392.63Z" fill="#263238"/>
<path d="M185.57 258.52H270.83V303.26H185.57C180.889 303.26 176.399 301.4 173.089 298.09C169.779 294.78 167.92 290.291 167.92 285.61V276.16C167.92 271.479 169.779 266.99 173.089 263.68C176.399 260.37 180.889 258.51 185.57 258.51V258.52Z" fill="#8471B0"/>
<path d="M248.54 258.52H428.39C429.167 258.52 429.912 258.829 430.462 259.378C431.011 259.928 431.32 260.673 431.32 261.45V263.02C431.32 263.797 431.011 264.542 430.462 265.092C429.912 265.641 429.167 265.95 428.39 265.95H248.54V258.52Z" fill="#8471B0"/>
<path d="M248.54 295.84H428.39C428.775 295.84 429.156 295.916 429.511 296.063C429.867 296.21 430.19 296.426 430.462 296.698C430.734 296.97 430.95 297.293 431.097 297.649C431.244 298.004 431.32 298.385 431.32 298.77V300.34C431.32 301.117 431.011 301.862 430.462 302.412C429.912 302.961 429.167 303.27 428.39 303.27H248.54V295.84Z" fill="#8471B0"/>
<path d="M425.85 295.84H268.94C266.977 295.84 265.033 295.453 263.22 294.702C261.407 293.95 259.76 292.849 258.372 291.461C256.985 290.072 255.884 288.424 255.134 286.61C254.384 284.797 253.998 282.853 254 280.89C254 276.928 255.574 273.128 258.376 270.326C261.177 267.524 264.977 265.95 268.94 265.95H425.85C423.771 270.658 422.697 275.748 422.697 280.895C422.697 286.042 423.771 291.132 425.85 295.84Z" fill="#F5F5F5"/>
<path opacity="0.3" d="M254 303.27H185.92C181.146 303.27 176.567 301.374 173.192 297.998C169.816 294.622 167.92 290.044 167.92 285.27V276.38C167.92 271.643 169.801 267.1 173.151 263.751C176.5 260.402 181.043 258.52 185.78 258.52H255.69C239.5 268.34 240.71 291.84 254 303.27Z" fill="black"/>
<path d="M406.79 282.28C406.79 282.43 374.58 282.55 334.86 282.55C295.14 282.55 262.93 282.43 262.93 282.28C262.93 282.13 295.13 282.01 334.86 282.01C374.59 282.01 406.79 282.13 406.79 282.28Z" fill="#263238"/>
<path d="M421.59 288.92C421.59 289.07 389.38 289.19 349.66 289.19C309.94 289.19 277.73 289.07 277.73 288.92C277.73 288.77 309.93 288.66 349.66 288.66C389.39 288.66 421.59 288.78 421.59 288.92Z" fill="#263238"/>
<path d="M417.23 272.86C417.23 273.01 385.02 273.13 345.3 273.13C305.58 273.13 273.36 273.01 273.36 272.86C273.36 272.71 305.56 272.59 345.3 272.59C385.04 272.59 417.23 272.73 417.23 272.86Z" fill="#263238"/>
<path d="M246.12 300.13C246.12 300.28 231.04 300.4 212.45 300.4C193.86 300.4 178.78 300.28 178.78 300.13C178.78 299.98 193.85 299.86 212.45 299.86C231.05 299.86 246.12 299.98 246.12 300.13Z" fill="#263238"/>
<path d="M246.12 262.24C246.12 262.39 231.04 262.51 212.45 262.51C193.86 262.51 178.78 262.39 178.78 262.24C178.78 262.09 193.85 261.97 212.45 261.97C231.05 261.97 246.12 262.09 246.12 262.24Z" fill="#263238"/>
<path d="M147.93 334.67H262.82V392.29H147.93C143.249 392.29 138.759 390.43 135.449 387.12C132.139 383.81 130.28 379.321 130.28 374.64V352.32C130.28 347.639 132.139 343.15 135.449 339.84C138.759 336.53 143.249 334.67 147.93 334.67Z" fill="#8471B0"/>
<path d="M234.11 334.67H466.54C467.317 334.67 468.062 334.979 468.612 335.528C469.161 336.078 469.47 336.823 469.47 337.6V341.31C469.47 342.087 469.161 342.832 468.612 343.382C468.062 343.931 467.317 344.24 466.54 344.24H234.11V334.67Z" fill="#8471B0"/>
<path d="M234.11 382.73H466.54C467.317 382.73 468.062 383.039 468.612 383.588C469.161 384.138 469.47 384.883 469.47 385.66V389.37C469.47 390.147 469.161 390.892 468.612 391.442C468.062 391.991 467.317 392.3 466.54 392.3H234.11V382.73Z" fill="#8471B0"/>
<path d="M462.45 382.73H260.39C255.286 382.727 250.392 380.698 246.785 377.088C243.177 373.479 241.15 368.584 241.15 363.48C241.15 360.953 241.648 358.451 242.614 356.117C243.581 353.783 244.999 351.662 246.785 349.875C248.572 348.089 250.693 346.671 253.027 345.705C255.361 344.738 257.863 344.24 260.39 344.24H462.45C459.77 350.302 458.385 356.857 458.385 363.485C458.385 370.113 459.77 376.668 462.45 382.73Z" fill="#F5F5F5"/>
<path opacity="0.3" d="M241.13 392.29H147.7C145.413 392.29 143.148 391.839 141.035 390.964C138.922 390.088 137.002 388.805 135.386 387.187C133.769 385.569 132.487 383.649 131.612 381.536C130.738 379.422 130.288 377.157 130.29 374.87V352.73C130.29 347.956 132.186 343.378 135.562 340.002C138.938 336.626 143.516 334.73 148.29 334.73H243.29C222.46 347.31 224.02 377.58 241.13 392.29Z" fill="black"/>
<path d="M437.9 365.27C437.9 365.42 396.42 365.54 345.27 365.54C294.12 365.54 252.63 365.42 252.63 365.27C252.63 365.12 294.1 365 345.27 365C396.44 365 437.9 365.12 437.9 365.27Z" fill="#263238"/>
<path d="M456.97 373.82C456.97 373.97 415.49 374.09 364.33 374.09C313.17 374.09 271.69 373.97 271.69 373.82C271.69 373.67 313.16 373.56 364.33 373.56C415.5 373.56 456.97 373.73 456.97 373.82Z" fill="#263238"/>
<path d="M451.39 357.33C451.39 357.48 409.92 357.6 358.76 357.6C307.6 357.6 266.12 357.48 266.12 357.33C266.12 357.18 307.59 357.06 358.76 357.06C409.93 357.06 451.39 357.18 451.39 357.33Z" fill="#263238"/>
<path d="M230.98 388.25C230.98 388.4 211.57 388.52 187.62 388.52C163.67 388.52 144.26 388.4 144.26 388.25C144.26 388.1 163.67 387.99 187.62 387.99C211.57 387.99 230.98 388.11 230.98 388.25Z" fill="#263238"/>
<path d="M230.98 339.46C230.98 339.6 211.57 339.72 187.62 339.72C163.67 339.72 144.26 339.6 144.26 339.46C144.26 339.32 163.67 339.19 187.62 339.19C211.57 339.19 230.98 339.31 230.98 339.46Z" fill="#263238"/>
<path d="M202.57 301.89H297.23V334.89H202.57C199.122 334.89 195.815 333.52 193.377 331.082C190.939 328.644 189.57 325.338 189.57 321.89V314.89C189.57 311.442 190.939 308.136 193.377 305.698C195.815 303.26 199.122 301.89 202.57 301.89Z" fill="#455A64"/>
<path d="M273.91 301.89H462.07C462.884 301.89 463.665 302.213 464.241 302.789C464.816 303.365 465.14 304.146 465.14 304.96V306.6C465.14 307.414 464.816 308.195 464.241 308.771C463.665 309.347 462.884 309.67 462.07 309.67H273.91V301.9V301.89Z" fill="#455A64"/>
<path d="M273.91 327.11H462.07C462.884 327.11 463.665 327.433 464.241 328.009C464.816 328.585 465.14 329.366 465.14 330.18V331.82C465.14 332.634 464.816 333.415 464.241 333.991C463.665 334.567 462.884 334.89 462.07 334.89H273.91V327.12V327.11Z" fill="#455A64"/>
<path d="M459.39 327.11H288.39C286.076 327.11 283.857 326.192 282.22 324.557C280.583 322.922 279.662 320.704 279.66 318.39C279.66 316.075 280.579 313.854 282.217 312.217C283.854 310.58 286.074 309.66 288.39 309.66H459.39C455.016 315.48 455.016 321.297 459.39 327.11Z" fill="#F5F5F5"/>
<path opacity="0.3" d="M279.61 334.88H202.61C200.89 334.88 199.187 334.541 197.598 333.883C196.009 333.224 194.566 332.259 193.35 331.043C192.135 329.826 191.171 328.382 190.513 326.792C189.856 325.203 189.518 323.5 189.52 321.78V315.26C189.518 313.505 189.863 311.766 190.534 310.144C191.205 308.522 192.189 307.048 193.429 305.807C194.67 304.565 196.143 303.58 197.765 302.908C199.386 302.236 201.124 301.89 202.88 301.89H281.39C264.44 309.13 265.71 326.46 279.61 334.88Z" fill="black"/>
<path d="M439.48 317.01C439.48 317.16 405.78 317.28 364.22 317.28C322.66 317.28 288.96 317.16 288.96 317.01C288.96 316.86 322.65 316.75 364.22 316.75C405.79 316.75 439.48 316.87 439.48 317.01Z" fill="#263238"/>
<path d="M454.97 321.73C454.97 321.88 421.27 322 379.71 322C338.15 322 304.45 321.88 304.45 321.73C304.45 321.58 338.14 321.46 379.71 321.46C421.28 321.46 454.97 321.56 454.97 321.73Z" fill="#263238"/>
<path d="M271.39 331.6C271.39 331.75 255.62 331.87 236.16 331.87C216.7 331.87 200.93 331.75 200.93 331.6C200.93 331.45 216.7 331.33 236.16 331.33C255.62 331.33 271.39 331.45 271.39 331.6Z" fill="#263238"/>
<path d="M271.39 305.78C271.39 305.93 255.62 306.04 236.16 306.04C216.7 306.04 200.93 305.93 200.93 305.78C200.93 305.63 216.7 305.51 236.16 305.51C255.62 305.51 271.39 305.63 271.39 305.78Z" fill="#263238"/>
<path d="M462.89 301.89C462.89 302.04 405.02 302.16 333.66 302.16C262.3 302.16 204.39 302.04 204.39 301.89C204.39 301.74 262.24 301.62 333.63 301.62C405.02 301.62 462.89 301.73 462.89 301.89Z" fill="#263238"/>
<path d="M359.12 272.37V290.29L365.33 286.31L372.25 290.29V272.37H359.12Z" fill="#8471B0"/>
<path d="M90.8399 328.57L108.57 321.41L122.11 286.04L140.16 295.34C140.16 295.34 138.42 298.83 134.69 307.48C133.24 310.81 128.47 320.12 126.53 324.65C124.734 328.838 121.777 332.425 118.008 334.985C114.239 337.546 109.815 338.974 105.26 339.1L88.6199 339.53L90.8399 328.57Z" fill="#FFBF9D"/>
<path d="M82.03 321.73L79.39 318.91C78.877 318.574 78.2732 318.403 77.66 318.42L69.18 318.68C68.3883 318.756 67.624 319.01 66.9437 319.422C66.2634 319.834 65.6845 320.394 65.25 321.06L62.16 326.31C62.16 326.31 60.09 329.9 60.35 330.78C60.4657 331.145 60.7128 331.455 61.0433 331.649C61.3739 331.843 61.7646 331.907 62.14 331.83C62.14 331.83 62.44 333.49 62.99 333.83C63.3084 333.99 63.6559 334.084 64.0117 334.107C64.3674 334.129 64.724 334.079 65.06 333.96C65.2059 334.275 65.4432 334.539 65.741 334.717C66.0388 334.895 66.3834 334.98 66.73 334.96C66.8787 334.946 67.0259 334.919 67.17 334.88C68.17 334.57 68.63 332.62 68.63 332.62L72.93 331.83C72.93 331.83 79.11 335.96 81.29 338.66C83.47 341.36 89.17 339.3 89.17 339.3L91.3 329.1L82.03 321.73Z" fill="#FFBF9D"/>
<path d="M75.7799 322.94C75.1767 323.127 74.551 323.231 73.9199 323.25C72.7499 323.38 71.0999 323.43 69.2299 323.67L69.4299 323.52C69.1084 324.211 68.7409 324.879 68.3299 325.52C67.2006 327.312 65.8274 328.937 64.2499 330.35C63.6302 330.973 62.9101 331.486 62.1199 331.87C62.1199 331.8 62.8699 331.2 63.9899 330.07C65.4605 328.608 66.7651 326.988 67.8799 325.24C68.2899 324.57 68.6599 323.91 68.9699 323.24L69.0299 323.11H69.1699C71.0799 322.9 72.7299 322.92 73.8999 322.88C74.5269 322.835 75.157 322.855 75.7799 322.94Z" fill="#FF9A6C"/>
<path d="M75.9699 326.99C75.4695 327.234 74.9257 327.377 74.3699 327.41C72.9887 327.601 71.585 327.554 70.2199 327.27L70.5299 327.1C70.35 327.624 70.1431 328.138 69.9099 328.64C69.1367 330.235 68.0521 331.66 66.7199 332.83C66.1999 333.346 65.5807 333.75 64.8999 334.02C65.3934 333.503 65.9141 333.012 66.4599 332.55C67.6927 331.351 68.7078 329.947 69.4599 328.4C69.6912 327.922 69.8948 327.431 70.0699 326.93L70.1499 326.71H70.3699C72.2154 327.055 74.0991 327.149 75.9699 326.99Z" fill="#FF9A6C"/>
<path d="M86.7499 329.08L79.1799 325.56C78.164 324.995 77.0387 324.654 75.8799 324.56C74.6404 324.669 73.4444 325.07 72.3899 325.73L68.3099 327.83C68.0899 327.95 67.8499 328.09 67.7799 328.32C67.7099 328.55 67.8999 328.95 68.1299 329.18C69.183 330.176 70.5613 330.758 72.0099 330.816C73.4585 330.875 74.8794 330.408 76.0099 329.5C76.5623 331.302 77.4252 332.994 78.5599 334.5C79.1401 335.255 79.9049 335.847 80.7807 336.22C81.6565 336.593 82.6137 336.734 83.5599 336.63" fill="#FFBF9D"/>
<path d="M83.5401 336.73C83.4772 336.761 83.4096 336.781 83.34 336.79C83.1371 336.84 82.9291 336.867 82.7201 336.87C81.9257 336.873 81.1427 336.681 80.4401 336.31C79.3517 335.741 78.4286 334.9 77.7601 333.87C76.9302 332.547 76.2589 331.13 75.7601 329.65L76.14 329.74C75.5327 330.25 74.8302 330.635 74.0732 330.872C73.3163 331.108 72.5198 331.193 71.73 331.12C70.8714 331.061 70.034 330.826 69.27 330.43C68.8789 330.223 68.5131 329.971 68.18 329.68C67.9996 329.531 67.8354 329.363 67.6901 329.18C67.5958 329.066 67.528 328.932 67.4917 328.789C67.4554 328.645 67.4514 328.495 67.48 328.35C67.5126 328.231 67.5693 328.119 67.6467 328.023C67.7242 327.927 67.8206 327.847 67.93 327.79C68.11 327.68 68.26 327.61 68.42 327.52L69.36 327.04L71.21 326.04C72.3593 325.367 73.5846 324.833 74.8601 324.45C76.0846 324.229 77.3477 324.423 78.45 325C79.45 325.46 80.45 325.92 81.25 326.33L85.25 328.33C85.7526 328.556 86.2373 328.82 86.7 329.12C86.1709 328.963 85.6558 328.762 85.16 328.52L81.06 326.71L78.24 325.45C77.2235 324.929 76.0617 324.763 74.9401 324.98C73.7097 325.365 72.5284 325.892 71.42 326.55L69.5801 327.55L68.64 328.04C68.32 328.2 67.98 328.36 67.96 328.52C67.94 328.68 68.19 329.07 68.5 329.32C68.8054 329.585 69.141 329.814 69.5 330C70.1994 330.362 70.9647 330.58 71.75 330.64C73.2111 330.782 74.6694 330.344 75.81 329.42L76.07 329.2L76.18 329.52C76.6462 330.975 77.2734 332.374 78.0501 333.69C78.6622 334.688 79.5148 335.517 80.53 336.1C81.4527 336.593 82.4972 336.812 83.5401 336.73Z" fill="#FF9A6C"/>
<path d="M185.19 230C185.26 224.32 186.19 218.66 185.93 213C185.67 207.34 184.22 201.41 180.26 197.34C176.3 193.27 169.39 191.73 164.79 194.98L163.79 199.82C165.61 221.72 165.37 243.97 167.19 265.87C167.43 268.75 169.76 271.36 171.07 273.93C172.38 276.5 175.01 278.63 177.89 278.45C181.66 278.22 184.13 274.4 185.3 270.8C189.6 257.79 185.02 243.73 185.19 230Z" fill="#263238"/>
<path d="M171.53 200.55C170.771 199.107 169.797 197.788 168.64 196.64C168.056 196.069 167.351 195.637 166.577 195.377C165.803 195.118 164.98 195.036 164.17 195.14C163.788 195.187 163.425 195.332 163.116 195.559C162.806 195.787 162.559 196.09 162.4 196.44C162.15 197.16 162.69 198.13 163.45 198.06L163.61 198.2C165.31 199.707 167.04 201.177 168.8 202.61C169.22 203.002 169.713 203.308 170.25 203.51C170.52 203.608 170.813 203.629 171.094 203.569C171.375 203.509 171.634 203.37 171.84 203.17C172.47 202.47 172.01 201.36 171.53 200.55Z" fill="#8471B0"/>
<path d="M174.74 206.13C169.08 199.21 161.48 195.22 152.54 195.13C147.54 195.04 145.41 196.13 141.78 197.07C138.145 197.948 134.932 200.07 132.7 203.07C130.13 206.72 127.97 210.81 127.48 215.26C126.839 219.807 126.622 224.403 126.83 228.99C127.04 233.599 128.521 238.061 131.11 241.88L142.75 243.88C149.18 244.1 155.7 244.31 161.97 242.88C168.24 241.45 174.32 238.04 177.67 232.55C182.33 224.87 180.39 213.04 174.74 206.13Z" fill="#263238"/>
<path d="M164.39 206.05L148.87 199.88L144.81 200.35C135.69 200.35 129.39 210.45 129.33 217.83C129.27 226.05 129.51 236.07 130.81 242.12C133.44 254.29 143.81 255.3 143.81 255.3C143.81 255.3 143.6 261.79 143.52 265.87L167.29 264.16L168.48 210.22C168.444 209.139 168.004 208.111 167.246 207.339C166.489 206.567 165.47 206.107 164.39 206.05Z" fill="#FFBF9D"/>
<path d="M149.06 239.27C148.964 238.648 148.644 238.082 148.16 237.68C147.72 237.301 147.167 237.077 146.587 237.042C146.007 237.008 145.432 237.165 144.95 237.49C144.45 237.875 144.061 238.387 143.824 238.972C143.587 239.557 143.509 240.195 143.6 240.82C143.867 241.195 144.212 241.509 144.61 241.74C145.008 241.971 145.452 242.114 145.91 242.16C146.053 242.17 146.197 242.17 146.34 242.16C147.082 242.175 147.8 241.899 148.34 241.39C148.612 241.113 148.817 240.779 148.942 240.412C149.067 240.045 149.107 239.655 149.06 239.27Z" fill="#FF9A6C"/>
<path d="M133.44 228.22C133.456 228.631 133.632 229.02 133.931 229.302C134.23 229.584 134.629 229.738 135.04 229.73C135.241 229.734 135.441 229.698 135.629 229.624C135.816 229.55 135.986 229.44 136.131 229.299C136.275 229.159 136.39 228.991 136.469 228.806C136.547 228.62 136.589 228.421 136.59 228.22C136.569 227.809 136.39 227.422 136.09 227.14C135.789 226.858 135.392 226.704 134.98 226.71C134.779 226.706 134.58 226.742 134.393 226.816C134.206 226.89 134.036 227.001 133.893 227.142C133.749 227.282 133.635 227.45 133.558 227.635C133.48 227.82 133.44 228.019 133.44 228.22Z" fill="#263238"/>
<path d="M132.11 221.94C132.31 222.13 133.46 221.19 135.11 221.1C136.76 221.01 138.11 221.79 138.27 221.57C138.43 221.35 138.13 221.11 137.57 220.75C136.809 220.282 135.921 220.062 135.03 220.12C134.149 220.164 133.306 220.486 132.62 221.04C132.16 221.47 132 221.85 132.11 221.94Z" fill="#263238"/>
<path d="M142.99 235.23C142.083 234.992 141.148 234.874 140.21 234.88C139.78 234.88 139.36 234.8 139.27 234.5C139.216 234.058 139.292 233.609 139.49 233.21C139.84 232.14 140.21 231.02 140.59 229.84C142.11 225.06 143.19 221.13 142.99 221.07C142.79 221.01 141.41 224.84 139.89 229.63L138.89 233.01C138.644 233.546 138.598 234.153 138.76 234.72C138.829 234.869 138.932 235 139.061 235.102C139.189 235.205 139.339 235.276 139.5 235.31C139.743 235.362 139.992 235.382 140.24 235.37C141.159 235.432 142.082 235.385 142.99 235.23Z" fill="#263238"/>
<path d="M143.79 255.29C149.576 255.061 155.184 253.23 159.99 250C159.99 250 156.08 258.75 143.73 258.28L143.79 255.29Z" fill="#FF9A6C"/>
<path d="M148.04 236.12C147.77 236.12 147.86 237.96 146.36 239.35C144.86 240.74 142.89 240.65 142.89 240.91C142.89 241.17 143.35 241.24 144.17 241.22C145.251 241.177 146.283 240.752 147.08 240.02C147.843 239.321 148.305 238.353 148.37 237.32C148.39 236.55 148.17 236.11 148.04 236.12Z" fill="#263238"/>
<path d="M132.68 216.01C132.99 216.4 134.27 216.06 135.79 216.1C137.31 216.14 138.59 216.47 138.91 216.1C139.05 215.91 138.86 215.52 138.31 215.1C137.566 214.617 136.697 214.363 135.81 214.37C134.923 214.346 134.048 214.579 133.29 215.04C132.74 215.42 132.55 215.81 132.68 216.01Z" fill="#263238"/>
<path d="M151.93 227.8C151.938 228.211 151.786 228.608 151.506 228.909C151.226 229.21 150.84 229.389 150.43 229.41C150.23 229.429 150.028 229.408 149.836 229.348C149.644 229.289 149.466 229.191 149.313 229.062C149.159 228.932 149.033 228.773 148.941 228.595C148.85 228.416 148.795 228.22 148.78 228.02C148.771 227.61 148.922 227.212 149.199 226.91C149.477 226.609 149.861 226.426 150.27 226.4C150.471 226.381 150.674 226.402 150.867 226.462C151.06 226.523 151.239 226.621 151.394 226.751C151.549 226.882 151.676 227.041 151.768 227.222C151.86 227.402 151.915 227.598 151.93 227.8Z" fill="#263238"/>
<path d="M155.03 221.28C154.84 221.49 153.63 220.63 151.93 220.66C150.23 220.69 149.01 221.57 148.82 221.36C148.63 221.15 148.92 220.9 149.46 220.49C150.183 219.969 151.049 219.686 151.94 219.68C152.822 219.66 153.688 219.923 154.41 220.43C154.94 220.82 155.13 221.19 155.03 221.28Z" fill="#263238"/>
<path d="M154.01 215.86C153.69 216.25 152.37 215.86 150.8 215.86C149.23 215.86 147.89 216.17 147.58 215.77C147.44 215.58 147.65 215.19 148.22 214.77C149.01 214.307 149.914 214.075 150.83 214.1C151.739 214.09 152.632 214.343 153.4 214.83C153.97 215.27 154.16 215.67 154.01 215.86Z" fill="#263238"/>
<path d="M166.39 230.84C166.39 229.93 167.28 227.72 168.18 227.53C170.57 227.02 174.92 226.97 175.3 233.09C175.82 241.46 167.3 240.25 167.3 240.01C167.3 239.77 166.54 234 166.39 230.84Z" fill="#FFBF9D"/>
<path d="M169.39 236.81C169.39 236.81 169.54 236.91 169.79 237C170.143 237.143 170.537 237.143 170.89 237C171.75 236.62 172.41 235.17 172.36 233.66C172.335 232.942 172.151 232.238 171.82 231.6C171.726 231.342 171.57 231.112 171.366 230.929C171.162 230.746 170.916 230.616 170.65 230.55C170.481 230.517 170.305 230.543 170.154 230.625C170.002 230.708 169.884 230.84 169.82 231C169.72 231.24 169.82 231.41 169.74 231.42C169.66 231.43 169.55 231.29 169.6 230.94C169.633 230.73 169.739 230.539 169.9 230.4C170.007 230.305 170.132 230.233 170.268 230.188C170.404 230.144 170.547 230.127 170.69 230.14C171.038 230.182 171.37 230.315 171.651 230.526C171.932 230.736 172.152 231.017 172.29 231.34C172.689 232.043 172.912 232.832 172.94 233.64C172.99 235.33 172.22 236.96 171.04 237.38C170.819 237.46 170.584 237.49 170.35 237.467C170.117 237.445 169.891 237.371 169.69 237.25C169.39 237.02 169.39 236.83 169.39 236.81Z" fill="#FF9A6C"/>
<path d="M168.5 227.55L166.39 229.73C157.21 220.94 139.27 198.94 140.28 200.25C144.464 198.695 148.973 198.217 153.39 198.86C160.22 200.02 173.16 203.44 172.96 211.49C172.76 219.54 168.5 227.55 168.5 227.55Z" fill="#263238"/>
<path d="M180.66 225.73C180.633 225.566 180.589 225.405 180.53 225.25C180.378 224.795 180.187 224.353 179.96 223.93C179.093 222.381 177.899 221.04 176.46 220C174.339 218.476 171.971 217.33 169.46 216.61C166.66 215.7 163.51 214.99 160.41 213.61C157.487 212.392 154.715 210.838 152.15 208.98C150.052 207.461 148.098 205.754 146.31 203.88C145.111 202.612 143.986 201.277 142.94 199.88L142.1 198.72C142.006 198.58 141.899 198.449 141.78 198.33C141.85 198.484 141.934 198.631 142.03 198.77C142.2 199.05 142.45 199.46 142.8 199.97C143.801 201.417 144.9 202.794 146.09 204.09C150.037 208.382 154.868 211.766 160.25 214.01C163.229 215.139 166.263 216.117 169.34 216.94C171.84 217.621 174.206 218.72 176.34 220.19C177.764 221.19 178.965 222.474 179.87 223.96C180.39 225.05 180.61 225.73 180.66 225.73Z" fill="#8471B0"/>
<path d="M178.22 227.02C178.247 226.394 178.138 225.77 177.9 225.19C177.269 223.591 176.171 222.218 174.75 221.25C172.623 219.88 170.243 218.952 167.75 218.52C164.767 217.922 161.86 216.997 159.08 215.76C156.312 214.497 153.712 212.895 151.34 210.99C149.41 209.428 147.635 207.683 146.04 205.78C144.953 204.489 143.951 203.13 143.04 201.71L142.33 200.54C142.257 200.399 142.166 200.268 142.06 200.15C142.116 200.298 142.183 200.442 142.26 200.58L142.9 201.8C143.751 203.257 144.707 204.651 145.76 205.97C147.336 207.923 149.109 209.709 151.05 211.3C153.436 213.243 156.061 214.873 158.86 216.15C161.664 217.401 164.604 218.324 167.62 218.9C170.068 219.308 172.412 220.191 174.52 221.5C175.914 222.418 177.012 223.72 177.68 225.25C177.914 225.822 178.095 226.415 178.22 227.02Z" fill="#8471B0"/>
<path d="M168.22 241.73C168.22 241.67 168.93 241.58 170.17 241.25C171.909 240.748 173.509 239.855 174.85 238.64C176.814 236.802 178.306 234.517 179.2 231.98C180.342 228.888 180.957 225.626 181.02 222.33C181.058 220.627 180.92 218.925 180.61 217.25C179.771 213.038 177.792 209.136 174.89 205.97C173.183 204.158 171.301 202.52 169.27 201.08C169.27 201.08 169.44 201.14 169.74 201.32C170.04 201.5 170.47 201.74 171 202.12C172.519 203.162 173.92 204.366 175.18 205.71C177.066 207.702 178.592 210.006 179.69 212.52C180.326 214.011 180.812 215.562 181.14 217.15C181.462 218.861 181.606 220.6 181.57 222.34C181.51 225.698 180.871 229.02 179.68 232.16C178.733 234.757 177.164 237.081 175.11 238.93C173.708 240.15 172.035 241.017 170.23 241.46C169.739 241.571 169.241 241.652 168.74 241.7C168.568 241.724 168.394 241.734 168.22 241.73Z" fill="#8471B0"/>
<path d="M178.87 344.64L129.39 351.83C110.8 357.09 91.22 358.63 70.75 356.83L145.22 391.57L175.12 392.03C175.12 392.03 184.22 392.03 185.81 384.09C187.4 376.15 189.17 351.97 189.17 351.97C189.17 351.97 183.26 346.85 178.87 344.64Z" fill="#263238"/>
<g opacity="0.3">
<path d="M178.72 365.47C179.538 370.425 179.833 375.453 179.6 380.47C181.12 378.802 182.239 376.809 182.873 374.643C183.508 372.477 183.64 370.195 183.26 367.97C182.83 365.53 181.81 362.84 183.09 360.71C183.95 359.28 186.22 357.64 185.89 356.01C185.89 356.01 183.89 356.01 182.1 355.94C180.65 355.88 177.64 355.79 177.64 355.79C178.935 358.901 179.215 362.341 178.44 365.62" fill="black"/>
</g>
<path d="M143.6 263.83L167.64 261.23L172.04 265.23L154.88 275.33L147.31 279.25L139.83 276.98L137.46 272.52L143.6 263.83Z" fill="#FFBF9D"/>
<path d="M111.19 293.1C111.19 293.1 118.73 278.64 120.59 275.48C123.77 270.09 129.71 267.04 129.71 267.04L143.6 263.83C143.6 263.83 142.16 270.83 150.8 271.27C161.8 271.88 168.63 261.34 168.63 261.34C168.63 261.34 181.17 262.63 184.63 264.08C188.09 265.53 197.89 269.64 199.33 282.66L202.69 303.93L176.19 305.93L176.55 334.25L165.29 343.46C165.29 343.46 132.96 354.59 130.89 355.32C129.89 355.67 130.15 341.93 127.84 330.15L123.48 319.56C121.715 315.33 120.671 310.835 120.39 306.26C120.22 303.26 120.3 300.96 120.3 300.96C120.3 300.96 113.5 298.63 111.19 293.1Z" fill="#8471B0"/>
<path d="M132.07 344.22L176.5 330.89L176.19 305.95L198.81 304.23C198.81 304.23 197.01 317.15 196.74 323.77C196.36 333.3 191.74 346.62 188.74 349.44C185.74 352.26 130.92 355.34 130.92 355.34L132.07 344.22Z" fill="#FFBF9D"/>
<path d="M106.87 352.06C107.084 352.427 107.425 352.703 107.828 352.837C108.231 352.972 108.669 352.955 109.06 352.79C110.06 352.39 109.79 350.37 109.79 350.37L114.52 349.21C114.52 349.21 121.05 352.75 123.52 355.21C125.99 357.67 131.42 355.1 131.42 355.1L132.55 344.73L123.12 337.44C123.12 337.44 123.7 337.88 122.97 336.44C122.24 335 119.52 335.78 119.52 335.78C119.04 335.07 117.21 334.95 117.21 334.95L109.54 336.44C108.762 336.591 108.027 336.915 107.39 337.388C106.754 337.86 106.231 338.469 105.86 339.17L102.99 344.6C102.99 344.6 101.55 348.46 101.9 349.31C102.051 349.662 102.326 349.946 102.672 350.108C103.019 350.27 103.413 350.299 103.78 350.19C103.78 350.19 104.35 352.61 105 352.64C105.657 352.559 106.292 352.352 106.87 352.03V352.06Z" fill="#FFBF9D"/>
<path d="M122.76 343.46C122.76 343.54 121.76 343.52 120.08 343.72C117.941 343.993 115.848 344.554 113.86 345.39C112.768 345.856 111.715 346.408 110.71 347.04C109.82 347.63 108.88 348.14 108.63 348.85C108.576 349.003 108.563 349.167 108.591 349.326C108.619 349.485 108.687 349.635 108.79 349.76C108.948 349.968 109.164 350.124 109.41 350.21C109.83 350.34 110.08 350.21 110.1 350.21C110.12 350.21 109.87 350.44 109.36 350.35C109.058 350.283 108.785 350.122 108.58 349.89C108.433 349.732 108.33 349.538 108.28 349.327C108.231 349.117 108.238 348.897 108.3 348.69C108.471 348.224 108.777 347.82 109.18 347.53C109.58 347.22 110 346.91 110.47 346.6C113.335 344.724 116.626 343.599 120.04 343.33C120.948 343.226 121.866 343.27 122.76 343.46Z" fill="#FF9A6C"/>
<path d="M123.69 348.35C123.69 348.49 120.53 348.61 116.69 349.13C112.85 349.65 109.77 350.37 109.69 350.23C110.324 349.925 110.997 349.706 111.69 349.58C113.311 349.172 114.953 348.859 116.61 348.64C118.268 348.415 119.937 348.285 121.61 348.25C122.305 348.188 123.004 348.222 123.69 348.35Z" fill="#FF9A6C"/>
<path d="M106.9 351.86C106.819 351.596 106.765 351.325 106.74 351.05C106.637 350.297 106.577 349.539 106.56 348.78C106.551 348.251 106.585 347.723 106.66 347.2C106.753 346.584 106.967 345.993 107.29 345.46C107.955 344.227 108.859 343.139 109.95 342.26C111.029 341.378 112.227 340.654 113.51 340.11C114.573 339.715 115.682 339.457 116.81 339.34C117.81 339.23 118.53 339.2 119.07 339.17C119.345 339.129 119.625 339.129 119.9 339.17C118.911 339.396 117.909 339.563 116.9 339.67C115.812 339.83 114.745 340.111 113.72 340.51C112.49 341.059 111.339 341.772 110.3 342.63C109.264 343.464 108.389 344.48 107.72 345.63C107.186 346.578 106.92 347.653 106.95 348.74C106.87 350.67 107.01 351.86 106.9 351.86Z" fill="#FF9A6C"/>
<path d="M116.99 336.97C116.99 337.05 115.84 337.17 113.99 337.52C112.14 337.87 109.39 338.28 107.99 340.86C106.561 342.817 105.407 344.96 104.56 347.23C104.296 348.195 104.125 349.183 104.05 350.18C103.957 349.917 103.919 349.638 103.94 349.36C103.922 348.607 104.016 347.855 104.22 347.13C104.981 344.78 106.116 342.569 107.58 340.58C107.969 339.978 108.436 339.429 108.97 338.95C109.485 338.509 110.078 338.169 110.72 337.95C111.771 337.585 112.857 337.327 113.96 337.18C114.957 336.984 115.975 336.913 116.99 336.97Z" fill="#FF9A6C"/>
<path d="M121.66 353.73C121.487 353.639 121.323 353.532 121.17 353.41L119.8 352.48C118.074 351.343 116.284 350.304 114.44 349.37H114.55L109.83 350.56L109.98 350.34C110.025 350.732 110.025 351.128 109.98 351.52C109.95 351.952 109.794 352.366 109.53 352.71C109.366 352.883 109.153 353.001 108.92 353.05C108.705 353.125 108.477 353.156 108.25 353.14C107.78 353.106 107.338 352.908 107 352.58C106.918 352.495 106.841 352.404 106.77 352.31V352.24L107.05 352.32L106.9 352.39C106.706 352.492 106.505 352.582 106.3 352.66C106.091 352.742 105.877 352.812 105.66 352.87C105.546 352.904 105.428 352.927 105.31 352.94C105.158 352.965 105.003 352.948 104.86 352.89C104.632 352.745 104.451 352.537 104.34 352.29C104.229 352.083 104.132 351.87 104.05 351.65C103.882 351.217 103.745 350.772 103.64 350.32L103.93 350.49C103.611 350.588 103.272 350.596 102.949 350.513C102.626 350.43 102.332 350.259 102.1 350.02C101.859 349.765 101.717 349.431 101.7 349.08C101.699 348.764 101.729 348.45 101.79 348.14C102.057 346.936 102.412 345.753 102.85 344.6L104.38 341.7L105.38 339.87C105.676 339.237 106.038 338.637 106.46 338.08C106.918 337.544 107.479 337.105 108.11 336.79C108.725 336.507 109.379 336.319 110.05 336.23L117.27 334.84H117.33C117.774 334.874 118.213 334.954 118.64 335.08C119.093 335.18 119.503 335.422 119.81 335.77L119.53 335.71C119.911 335.499 120.337 335.384 120.773 335.373C121.208 335.363 121.639 335.458 122.03 335.65C122.705 336.077 123.197 336.74 123.41 337.51L123.34 337.42L129.84 342.42L131.59 343.8C131.801 343.953 131.998 344.124 132.18 344.31C131.95 344.191 131.733 344.051 131.53 343.89L129.72 342.58L123.12 337.72H123.07V337.65C122.884 336.98 122.452 336.405 121.86 336.04C121.53 335.882 121.167 335.805 120.801 335.817C120.436 335.83 120.078 335.93 119.76 336.11L119.59 336.19L119.48 336.05C119.226 335.787 118.898 335.605 118.54 335.53C118.141 335.42 117.733 335.349 117.32 335.32H117.38L110.16 336.74C109.53 336.822 108.916 337.001 108.34 337.27C107.772 337.551 107.269 337.946 106.86 338.43C106.466 338.962 106.131 339.536 105.86 340.14L104.86 341.97C104.33 342.97 103.86 343.97 103.33 344.87C102.917 345.999 102.583 347.155 102.33 348.33C102.272 348.603 102.242 348.881 102.24 349.16C102.253 349.4 102.353 349.627 102.52 349.8C102.692 349.972 102.907 350.095 103.143 350.155C103.379 350.214 103.627 350.209 103.86 350.14L104.1 350.08V350.31C104.21 350.74 104.34 351.18 104.49 351.59C104.6 351.965 104.799 352.308 105.07 352.59C105.135 352.609 105.205 352.609 105.27 352.59L105.56 352.53C105.762 352.485 105.96 352.421 106.15 352.34C106.34 352.27 106.53 352.18 106.72 352.09L106.86 352.03L107.15 352.11V352.16C107.204 352.238 107.265 352.311 107.33 352.38C107.516 352.579 107.756 352.72 108.02 352.787C108.284 352.855 108.561 352.845 108.82 352.76C108.98 352.733 109.127 352.656 109.24 352.54C109.592 351.937 109.723 351.229 109.61 350.54V350.36H109.77L114.51 349.24H114.57C116.413 350.199 118.187 351.285 119.88 352.49C120.47 352.92 120.88 353.26 121.21 353.49C121.366 353.559 121.516 353.639 121.66 353.73Z" fill="#FF9A6C"/>
<path d="M98.56 360.15C98.56 360.15 67.21 350.3 57.37 347.15C40.37 341.65 29.31 347.21 25.81 353.27C21.27 361.14 32.16 376.49 36.36 380.02C48.79 390.47 70.1 391.88 70.1 391.88L146.72 391.74L124.39 361.36L98.56 360.15Z" fill="#263238"/>
<path d="M103.26 374.37C90.4922 375.856 77.5559 374.095 65.65 369.25C63.6187 368.332 61.5272 367.553 59.39 366.92C57.2771 366.387 55.0869 366.232 52.92 366.46C52.06 366.482 51.2131 366.676 50.4298 367.032C49.6465 367.388 48.9426 367.897 48.36 368.53C46.83 370.53 47.61 373.41 48.46 375.79C49.46 378.59 50.46 381.45 52.46 383.69C54.73 386.3 58.03 387.8 61.34 388.84C67.81 390.84 74.64 391.47 81.42 391.73L104.7 390.46L103.26 374.37Z" fill="#E0E0E0"/>
<path d="M58.3001 366.93C58.453 367.118 58.5715 367.331 58.6501 367.56C58.9205 368.157 59.1283 368.78 59.2701 369.42C59.7727 371.548 59.6844 373.773 59.0147 375.854C58.345 377.936 57.1193 379.794 55.4701 381.23C54.9791 381.66 54.4503 382.045 53.8901 382.38C53.4801 382.61 53.2501 382.71 53.2301 382.68C53.2101 382.65 54.0701 382.1 55.2301 380.97C56.752 379.515 57.8866 377.703 58.531 375.698C59.1753 373.693 59.3091 371.559 58.9201 369.49C58.6401 367.89 58.2201 366.96 58.3001 366.93Z" fill="#263238"/>
<path d="M178.58 358.23C176.76 353.07 176.46 345.49 165.23 341.85C154 338.21 145.52 345.19 139.75 347.61C133.98 350.03 102.45 367.33 102.45 367.33C102.45 367.33 96.5101 377.92 98.2001 382.6C99.8901 387.28 107.57 391.9 107.57 391.9H142.84C151.94 391.9 168.84 391.59 168.84 391.59C171.103 387.881 173.13 384.033 174.91 380.07L175.21 378.55C175.24 377.34 180.39 363.39 178.58 358.23Z" fill="#263238"/>
<path d="M159.04 385.02C158.994 385.199 158.905 385.364 158.78 385.5C158.438 385.896 158.048 386.249 157.62 386.55C156.045 387.636 154.371 388.57 152.62 389.34C151.424 389.898 150.195 390.382 148.94 390.79C147.487 391.247 145.999 391.582 144.49 391.79C141.048 392.133 137.588 392.266 134.13 392.19C126.8 392.31 120.13 392.59 115.33 392.53C112.92 392.53 110.97 392.42 109.63 392.28C109.113 392.235 108.599 392.161 108.09 392.06C107.91 392.038 107.732 391.998 107.56 391.94C107.56 391.89 108.3 392.02 109.64 392.09C110.98 392.16 112.93 392.21 115.33 392.19C120.14 392.19 126.78 391.82 134.13 391.7C137.571 391.774 141.013 391.654 144.44 391.34C145.922 391.158 147.387 390.857 148.82 390.44C150.067 390.055 151.289 389.594 152.48 389.06C154.219 388.328 155.892 387.449 157.48 386.43C157.912 386.141 158.311 385.806 158.67 385.43C158.95 385.19 159.01 385.01 159.04 385.02Z" fill="#263238"/>
<path d="M107.57 391.9L107.1 391.65C106.8 391.48 106.36 391.2 105.79 390.83C104.132 389.748 102.578 388.512 101.15 387.14C100.116 386.148 99.2328 385.009 98.5301 383.76C97.8119 382.196 97.6292 380.439 98.0101 378.76C98.8676 374.74 100.306 370.866 102.28 367.26V367.21C108.06 364.03 114.69 360.42 121.93 356.53C125.55 354.59 129.32 352.58 133.24 350.53C135.24 349.53 137.24 348.53 139.24 347.53C141.24 346.53 143.29 345.53 145.36 344.45C148.22 342.883 151.287 341.728 154.47 341.02C156.034 340.708 157.626 340.564 159.22 340.59C160.78 340.637 162.33 340.858 163.84 341.25C166.769 341.971 169.519 343.285 171.92 345.11C173.037 346.035 174.025 347.104 174.86 348.29C175.628 349.459 176.262 350.71 176.75 352.02C177.25 353.3 177.6 354.59 177.96 355.85C178.373 357.074 178.707 358.323 178.96 359.59C179.117 362.01 178.915 364.439 178.36 366.8C177.91 369.05 177.36 371.15 176.79 373.1C176.51 374.1 176.23 375.03 175.97 375.94C175.71 376.85 175.41 377.75 175.27 378.55C175.15 379.12 175.06 379.55 174.96 380.06C173.997 383.15 172.636 386.102 170.91 388.84C170.299 389.819 169.577 390.725 168.76 391.54L168.89 391.36C169 391.23 169.14 391.07 169.31 390.85C169.84 390.183 170.334 389.489 170.79 388.77C172.456 386.015 173.77 383.062 174.7 379.98C175.27 379.5 175.16 379.03 174.99 378.46C175.165 377.548 175.392 376.646 175.67 375.76L176.48 372.93C177.02 370.93 177.56 368.87 178 366.64C178.533 364.317 178.721 361.928 178.56 359.55C178.297 358.309 177.963 357.083 177.56 355.88C177.19 354.62 176.83 353.34 176.34 352.09C175.863 350.811 175.242 349.59 174.49 348.45C173.679 347.303 172.717 346.27 171.63 345.38C168.034 342.685 163.701 341.15 159.21 340.98C157.652 340.954 156.097 341.099 154.57 341.41C151.425 342.108 148.394 343.249 145.57 344.8C143.57 345.8 141.57 347 139.42 347.89C137.27 348.78 135.42 349.84 133.42 350.89C129.51 352.89 125.73 354.89 122.11 356.89L102.43 367.5L102.5 367.42C100.532 370.984 99.087 374.814 98.2101 378.79C97.8156 380.412 97.9739 382.119 98.6601 383.64C99.3333 384.878 100.19 386.008 101.2 386.99C102.602 388.373 104.125 389.628 105.75 390.74L107.03 391.6C107.39 391.79 107.57 391.9 107.57 391.9Z" fill="#263238"/>
<path d="M164.97 378.81C164.97 378.81 175.48 380.07 174.55 385.21C173.62 390.35 170.18 392.08 170.18 392.08L141.62 392.14C141.62 392.14 158.67 390.96 164.97 378.81Z" fill="#E0E0E0"/>
<path d="M165.99 376.32C165.988 376.821 165.879 377.315 165.67 377.77C165.283 378.92 164.709 379.998 163.97 380.96C162.974 382.363 161.581 383.436 159.97 384.04C161.296 383.045 162.513 381.912 163.6 380.66C164.517 379.283 165.316 377.831 165.99 376.32Z" fill="#263238"/>
<path d="M162.39 378.33C162.407 379.62 162.06 380.888 161.39 381.99C160.877 383.158 160.092 384.187 159.1 384.99C158.99 384.9 160.02 383.57 160.95 381.74C161.88 379.91 162.21 378.31 162.39 378.33Z" fill="#263238"/>
<path d="M175.75 390.65C175.67 390.65 176.35 389.31 177.17 387.1C179.323 381.329 180.034 375.119 179.24 369.01C178.93 366.68 178.57 365.25 178.65 365.23C178.808 365.546 178.923 365.883 178.99 366.23C179.237 367.135 179.434 368.053 179.58 368.98C180.581 375.142 179.861 381.461 177.5 387.24C177.144 388.092 176.74 388.923 176.29 389.73C176.147 390.057 175.966 390.366 175.75 390.65Z" fill="#8471B0"/>
<g opacity="0.3">
<path d="M169.81 376.04C169.73 375.35 169.46 374.53 168.81 374.39C167.97 374.22 167.4 375.18 167.07 375.96C163.39 384.33 151.5 390.86 142.39 391.73C146.808 391.72 151.219 391.359 155.58 390.65C159.299 390.093 162.786 388.499 165.64 386.05C167.059 384.815 168.174 383.27 168.897 381.533C169.62 379.797 169.933 377.917 169.81 376.04Z" fill="black"/>
</g>
<path d="M100.23 364.65C98.4885 364.161 96.7949 363.515 95.1701 362.72C93.4811 362.08 91.8543 361.287 90.3101 360.35C92.0493 360.842 93.7424 361.484 95.3701 362.27C97.0595 362.913 98.6863 363.71 100.23 364.65Z" fill="#263238"/>
<g opacity="0.2">
<path d="M110.39 360.23C96.79 357.63 83.14 355.32 69.44 353.3L59.24 356.52C62.1 361.84 67.75 365.23 73.62 366.63C79.49 368.03 85.62 367.7 91.62 367.15C98.24 366.54 105.04 365.61 110.8 362.29C111.24 362.04 111.74 361.66 111.68 361.15C111.62 360.64 110.98 360.34 110.39 360.23Z" fill="black"/>
</g>
<path d="M43.45 319.73L60.59 357.63C60.9367 358.402 61.498 359.059 62.2071 359.522C62.9162 359.984 63.7433 360.234 64.59 360.24L114.59 360.89L120.89 357.5L111.02 356.78L95.66 319.92C95.4209 319.347 95.0186 318.856 94.503 318.509C93.9874 318.163 93.3813 317.975 92.76 317.97L44.87 317.61C44.6145 317.601 44.3609 317.657 44.1333 317.773C43.9056 317.889 43.7114 318.062 43.5692 318.274C43.4269 318.487 43.3413 318.732 43.3204 318.987C43.2996 319.241 43.3442 319.497 43.45 319.73Z" fill="#E0E0E0"/>
<path d="M43.4499 319.73C43.3681 319.589 43.317 319.432 43.2999 319.27C43.2683 319.03 43.2944 318.786 43.3762 318.558C43.4579 318.33 43.5929 318.125 43.7699 317.96C44.0432 317.706 44.3975 317.558 44.7699 317.54H49.1599L69.2099 317.61L83.1499 317.68L90.9399 317.73H92.9399C93.6806 317.783 94.3832 318.078 94.9399 318.57C95.4763 319.073 95.8726 319.707 96.0899 320.41L96.9099 322.41C101.28 332.88 106.11 344.46 111.23 356.7L110.99 356.53L120.52 357.23H120.86L121.86 357.3L121.01 357.76L114.71 361.15H114.64H114.57L76.6699 360.63L68.2099 360.51C66.8299 360.51 65.5099 360.51 64.1399 360.43C63.4556 360.349 62.7974 360.119 62.2117 359.756C61.626 359.394 61.127 358.907 60.7499 358.33C58.5199 353.64 56.6599 349.33 54.8499 345.33L46.4699 326.59C45.4699 324.4 44.7499 322.69 44.2299 321.5C43.9799 320.94 43.7999 320.5 43.6599 320.18C43.5199 319.86 43.4799 319.72 43.4799 319.72C43.5653 319.862 43.6421 320.009 43.7099 320.16L44.3299 321.46C44.8699 322.63 45.6499 324.33 46.6599 326.46L55.1999 345.14C57.0099 349.07 58.9499 353.49 61.1299 358.05C61.4692 358.57 61.9197 359.008 62.4488 359.334C62.978 359.659 63.5726 359.862 64.1899 359.93C65.4699 359.99 66.8599 359.98 68.1899 360L76.6499 360.1L114.55 360.56H114.41L120.71 357.16L120.83 357.69H120.49L110.96 357H110.79L110.72 356.85C105.63 344.59 100.81 333.01 96.4499 322.53L95.6399 320.58C95.4616 319.944 95.1163 319.367 94.6399 318.91C94.1645 318.481 93.5588 318.224 92.9199 318.18H90.9199L83.1299 318.11L69.1999 317.97L49.1299 317.73H45.9899H44.7499C44.5518 317.737 44.3573 317.785 44.1782 317.87C43.9991 317.955 43.8392 318.075 43.7082 318.224C43.5773 318.373 43.4779 318.547 43.4163 318.735C43.3547 318.924 43.3321 319.123 43.3499 319.32C43.3756 319.458 43.409 319.595 43.4499 319.73Z" fill="#263238"/>
<path d="M109.51 360.82C109.417 360.69 109.34 360.549 109.28 360.4L108.71 359.18C108.21 358.04 107.53 356.5 106.71 354.64C105.04 350.79 102.77 345.47 100.33 339.55C97.89 333.63 95.73 328.26 94.24 324.35C93.49 322.35 92.9 320.8 92.52 319.69C92.34 319.18 92.2 318.76 92.08 318.41C92.024 318.261 91.9838 318.107 91.96 317.95C92.0515 318.08 92.1255 318.221 92.18 318.37L92.7 319.62C93.17 320.78 93.8 322.33 94.56 324.22C96.18 328.16 98.37 333.48 100.78 339.37C103.19 345.26 105.41 350.56 107.03 354.5L108.9 359.1C109.09 359.61 109.25 360.02 109.38 360.36C109.449 360.505 109.493 360.66 109.51 360.82Z" fill="#263238"/>
<path d="M78.5101 338.1C78.512 338.587 78.3692 339.064 78.0997 339.47C77.8301 339.876 77.446 340.193 76.9961 340.381C76.5462 340.568 76.0507 340.618 75.5726 340.523C75.0945 340.429 74.6552 340.194 74.3106 339.849C73.966 339.505 73.7315 339.066 73.6369 338.587C73.5423 338.109 73.5918 337.614 73.7793 337.164C73.9667 336.714 74.2835 336.33 74.6896 336.06C75.0957 335.791 75.5727 335.648 76.0601 335.65C76.7098 335.65 77.333 335.908 77.7925 336.368C78.2519 336.827 78.5101 337.45 78.5101 338.1Z" fill="white"/>
<path d="M127.16 277.13C127.24 277.13 126.52 278.52 125.51 280.76C122.866 286.607 121.139 292.827 120.39 299.2C120.09 301.65 120.01 303.2 119.92 303.2C119.866 302.842 119.866 302.478 119.92 302.12C119.92 301.43 119.92 300.43 120.06 299.19C120.625 292.736 122.382 286.443 125.24 280.63C125.79 279.52 126.24 278.63 126.63 278.05C126.769 277.723 126.947 277.414 127.16 277.13Z" fill="#263238"/>
<path d="M202.69 303.93C202.511 303.985 202.326 304.015 202.14 304.02L200.55 304.17L194.61 304.67L174.3 306.2H174.04V305.94C173.87 303.24 173.69 300.39 173.51 297.47C173.22 292.37 172.97 287.47 172.89 283.08C172.631 279.125 173.531 275.181 175.48 271.73C176.818 269.402 178.791 267.505 181.17 266.26C181.812 265.938 182.481 265.674 183.17 265.47C183.409 265.395 183.653 265.335 183.9 265.29C183.9 265.37 182.9 265.58 181.25 266.44C178.957 267.728 177.064 269.624 175.78 271.92C173.927 275.336 173.097 279.214 173.39 283.09C173.49 287.5 173.75 292.36 174.04 297.46C174.22 300.38 174.39 303.23 174.56 305.92L174.28 305.68L194.61 304.34L200.61 303.99L202.2 303.93H202.69Z" fill="#263238"/>
<path d="M152.86 321.25C152.552 321.19 152.255 321.082 151.98 320.93C151.636 320.786 151.302 320.619 150.98 320.43C150.549 320.198 150.131 319.941 149.73 319.66C148.666 318.942 147.684 318.111 146.8 317.18C145.731 316.027 144.792 314.759 144 313.4C143.236 312.026 142.629 310.57 142.19 309.06C141.842 307.827 141.627 306.559 141.55 305.28C141.521 304.79 141.521 304.3 141.55 303.81C141.552 303.439 141.578 303.068 141.63 302.7C141.639 302.382 141.7 302.068 141.81 301.77C141.91 301.77 141.74 303.12 141.95 305.25C142.076 306.494 142.32 307.723 142.68 308.92C143.14 310.384 143.746 311.798 144.49 313.14C145.256 314.463 146.157 315.703 147.18 316.84C148.031 317.761 148.965 318.601 149.97 319.35C151.67 320.62 152.91 321.16 152.86 321.25Z" fill="#263238"/>
<path d="M4 7.71407C4 3.27409 6.13333 0 10.95 0C15.7667 0 18 3.19423 18 7.71407V23.2859C18 27.7259 15.85 31 10.95 31C6.05 31 4 27.8058 4 23.2859V7.71407ZM6.08333 23.4297C6.08333 26.7517 7.45 29.1793 10.95 29.1793C14.45 29.1793 15.95 26.7517 15.95 23.4297V7.58629C15.95 4.28027 14.55 1.83668 10.95 1.83668C7.35 1.83668 6.08333 4.28027 6.08333 7.58629V23.4297Z" fill="#263238"/>
<path d="M21 7.71407C21 3.27409 23.1333 0 27.95 0C32.7667 0 35 3.19423 35 7.71407V23.2859C35 27.7259 32.8667 31 27.95 31C23.0333 31 21 27.8058 21 23.2859V7.71407ZM23.0833 23.4297C23.0833 26.7517 24.45 29.1793 27.95 29.1793C31.45 29.1793 32.95 26.7517 32.95 23.4297V7.58629C32.95 4.28027 31.55 1.83668 27.95 1.83668C24.35 1.83668 23.0833 4.28027 23.0833 7.58629V23.4297Z" fill="#263238"/>
<path d="M45.362 0C50.1336 0 52 3.0042 52 7.5186V10.8963C52 15.7679 49.7278 18.2362 44.8265 18.2362H40.98V31H39V0H45.362ZM44.8265 16.385C48.4132 16.385 49.9551 14.7611 49.9551 11.0262V7.38869C49.9551 4.02724 48.8027 1.85124 45.362 1.85124H40.98V16.4662L44.8265 16.385Z" fill="#263238"/>
<path d="M67.9526 7.64683V8.28403H66.0571V7.50347C66.0571 4.3175 64.8566 1.8643 61.5869 1.8643C58.3171 1.8643 57.1009 4.25377 57.1009 7.4716C57.1009 14.8471 68 14.9746 68 23.4015C68 27.7822 66.1045 31 61.4921 31C56.8797 31 55 27.814 55 23.4015V21.8085H56.8955V23.497C56.8955 26.683 58.1434 29.1043 61.4605 29.1043C64.7776 29.1043 66.0255 26.7467 66.0255 23.497C66.0255 16.2012 55.1264 16.0737 55.1264 7.56719C55.1264 3.01125 57.1008 0.0483024 61.5395 0.000512853C65.9781 -0.0472767 67.9526 3.2502 67.9526 7.64683Z" fill="#263238"/>
<path d="M74 27V31H72V27H74Z" fill="#263238"/>
<path d="M79 27V31H77V27H79Z" fill="#263238"/>
<path d="M85 27V31H83V27H85Z" fill="#263238"/>
<path d="M10.3868 44C15.2376 44 17 47.0042 17 51.5348V54.8963C17 59.768 14.7525 62.2525 9.8694 62.2525H6.02114V75H4V44H10.3868ZM9.8694 60.385C13.4266 60.385 14.9789 58.7611 14.9789 55.0262V51.3887C14.9789 48.0272 13.8308 45.8675 10.3868 45.8675H6.02114V60.385H9.8694Z" fill="#263238"/>
<path d="M22.5659 68.1417L20.9073 75H19L25.9161 44H28.9512L36 75H33.9268L32.2683 68.1417H22.5659ZM22.881 66.3745H32.1025L27.442 46.3509L22.881 66.3745Z" fill="#263238"/>
<path d="M53 51.6981V53.966H50.9686V51.5703C50.9686 48.3761 49.6312 45.8207 46.0762 45.8207C42.5211 45.8207 41.1838 48.3122 41.1838 51.5703V67.4297C41.1838 70.6239 42.5211 73.1314 46.0762 73.1314C49.6312 73.1314 50.9686 70.6878 50.9686 67.4297V60.8496H46.6179V59.0289H52.9323V67.3019C52.9323 71.694 50.9008 75 45.9577 75C41.0145 75 39 71.694 39 67.3019V51.6981C39 47.306 41.0314 44 45.9577 44C50.8839 44 53 47.338 53 51.6981Z" fill="#263238"/>
<path d="M67.3108 58.3251V60.1725H59.008V73.1364H69V75H57V44H69V45.8636H59.008V58.3251H67.3108Z" fill="#263238"/>
<path d="M81.9008 75H80V44H82.7107L92.1157 70.1771V44H94V75H91.7025L81.7851 47.3939L81.9008 75Z" fill="#263238"/>
<path d="M97 51.6981C97 47.2581 99.1333 44 103.95 44C108.767 44 111 47.1942 111 51.6981V67.3019C111 71.7419 108.85 75 103.95 75C99.05 75 97 71.8058 97 67.3019V51.6981ZM99.0833 67.4297C99.0833 70.7357 100.45 73.1793 103.95 73.1793C107.45 73.1793 108.95 70.7357 108.95 67.4297V51.5703C108.95 48.2643 107.55 45.8207 103.95 45.8207C100.35 45.8207 99.0833 48.2643 99.0833 51.5703V67.4297Z" fill="#263238"/>
<path d="M119.45 75V45.8675H113V44H128V45.8675H121.5V75H119.45Z" fill="#263238"/>
<path d="M148.246 59.1022V60.9534H140.069V75H138V44H150V45.8675H140.069V59.1022H148.246Z" fill="#263238"/>
<path d="M153 51.6981C153 47.2581 155.133 44 159.95 44C164.767 44 167 47.1942 167 51.6981V67.3019C167 71.7419 164.867 75 159.95 75C155.033 75 153 71.8058 153 67.3019V51.6981ZM155.083 67.4297C155.083 70.7357 156.45 73.1793 159.95 73.1793C163.45 73.1793 164.95 70.7357 164.95 67.4297V51.5703C164.95 48.2643 163.55 45.8207 159.95 45.8207C156.35 45.8207 155.083 48.2643 155.083 51.5703V67.4297Z" fill="#263238"/>
<path d="M172.147 67.3184C172.147 70.5392 173.47 73.1642 177.077 73.1642C180.685 73.1642 181.99 70.6197 181.99 67.3184V44H184V67.2379C184 71.6182 182.042 75 177.026 75C172.01 75 170 71.6182 170 67.2379V44H172.147V67.3184Z" fill="#263238"/>
<path d="M188.875 75H187V44H189.682L199.108 70.1771V44H201V75H198.697L188.826 47.3939L188.875 75Z" fill="#263238"/>
<path d="M211.975 44C216.874 44 219 47.1503 219 51.7135V67.2865C219 71.8497 216.874 75 211.975 75H205V44H211.975ZM211.975 73.1325C215.512 73.1325 216.957 70.7941 216.957 67.384V51.616C216.957 48.2059 215.463 45.8675 211.975 45.8675H207.142V73.1325H211.975Z" fill="#263238"/>
<path d="M245 223.138L269.217 163H283.719V223.138H290V235.847H283.719V252H270.658V235.847H245V223.138ZM270.623 223.138V189.709L257.206 223.138H270.623Z" fill="#263238"/>
<path d="M295 184.414C295 170.218 302.231 162 315.5 162C328.769 162 336 170.125 336 184.414V230.586C336 244.8 328.769 253 315.5 253C302.231 253 295 244.875 295 230.586V184.414ZM308.504 231.483C308.504 237.833 311.198 240.243 315.5 240.243C319.802 240.243 322.496 237.833 322.496 231.483V183.536C322.496 177.185 319.784 174.776 315.5 174.776C311.216 174.776 308.504 177.185 308.504 183.536V231.483Z" fill="#263238"/>
<path d="M341 223.138L365.192 163H379.711V223.138H386V235.847H379.711V252H366.635V235.847H341V223.138ZM366.635 223.138V189.709L353.221 223.138H366.635Z" fill="#263238"/>
</svg>
