<svg width="458" height="434" viewBox="0 0 458 434" fill="none" xmlns="http://www.w3.org/2000/svg">
<path d="M73.96 260.18H4.74001V315.52H73.96V260.18Z" fill="#F5F5F5"/>
<path d="M68.32 254.29L67.99 254.37L66.99 254.56L63.3 255.28L49.37 257.95L0.32 267.25L0.51 266.97C3.51 283.16 7.03 301.72 10.72 321.36L10.41 321.14L78.41 308.46L78.24 308.72C75.24 292.34 72.72 278.77 70.97 269.26C70.11 264.51 69.43 260.78 68.97 258.26C68.74 256.99 68.57 256.02 68.45 255.34C68.33 254.66 68.28 254.34 68.28 254.34C68.28 254.34 68.36 254.66 68.48 255.34L69.05 258.21C69.54 260.76 70.25 264.47 71.16 269.21C72.97 278.74 75.55 292.35 78.67 308.77L78.72 308.98L78.5 309.03L10.46 321.73L10.2 321.78L10.15 321.51C6.49 301.87 3.02 283.31 0 267.11V266.88L0.24 266.83L49.48 257.73L63.37 255.19L67.04 254.53L67.97 254.37L68.32 254.29Z" fill="#E0E0E0"/>
<path d="M71.48 263.67H7.12V312.04H71.48V263.67Z" fill="#EBEBEB"/>
<path d="M12.12 317.55L28.69 283.86L45.83 299.79L53.27 288.17L75.38 305.72L12.12 317.55Z" fill="#E0E0E0"/>
<path d="M47.51 276.6C47.6945 277.585 47.5826 278.604 47.1885 279.525C46.7945 280.447 46.136 281.232 45.2962 281.779C44.4564 282.327 43.4731 282.614 42.4706 282.602C41.4681 282.591 40.4913 282.283 39.6639 281.717C38.8364 281.151 38.1953 280.352 37.8217 279.422C37.4481 278.492 37.3587 277.471 37.5649 276.49C37.771 275.509 38.2635 274.611 38.9799 273.91C39.6964 273.208 40.6047 272.735 41.59 272.55C42.2447 272.427 42.9172 272.434 43.5691 272.571C44.2209 272.708 44.8395 272.972 45.3892 273.348C45.939 273.724 46.4093 274.205 46.7732 274.763C47.1371 275.321 47.3875 275.945 47.51 276.6Z" fill="#E0E0E0"/>
<path d="M321.86 63.11H126.29V207.91H321.86V63.11Z" fill="#FAFAFA"/>
<path d="M277.89 244.62C277.89 244.62 277.94 244.3 278.04 243.7L278.52 240.99C278.94 238.61 279.57 235.09 280.38 230.52C282.03 221.36 284.43 207.98 287.47 191.04L312.47 52.14L312.67 52.42L170.22 26.65L170.53 26.43C157.53 98.22 145.46 164.72 135.64 218.86L135.47 218.61L239 237.47L267.73 242.73L275.29 244.13C277 244.44 277.89 244.62 277.89 244.62L275.33 244.18L267.8 242.84L239.07 237.73L135.37 219.07H135.16V218.86C144.95 164.7 156.98 98.2 169.96 26.41V26.15H170.23L312.77 51.94L313.01 51.99V52.22C302.64 109.22 293.88 157.35 287.72 191.22L280.52 230.62C279.68 235.17 279.04 238.62 278.6 241.04C278.38 242.21 278.22 243.1 278.11 243.71L277.89 244.62Z" fill="#E0E0E0"/>
<path d="M238.49 51.77H177.01V105.33H238.49V51.77Z" fill="#E0E0E0"/>
<path d="M290.71 62.85H251.35V69.84H290.71V62.85Z" fill="#E0E0E0"/>
<path d="M282.37 120.25H170.03V127.24H282.37V120.25Z" fill="#E0E0E0"/>
<path d="M280.18 132.36H167.84V139.35H280.18V132.36Z" fill="#E0E0E0"/>
<path d="M277.99 144.46H165.65V151.45H277.99V144.46Z" fill="#E0E0E0"/>
<path d="M275.79 156.57H163.45V163.56H275.79V156.57Z" fill="#E0E0E0"/>
<path d="M273.6 168.67H161.26V175.66H273.6V168.67Z" fill="#E0E0E0"/>
<path d="M266.09 210.17H153.75V217.16H266.09V210.17Z" fill="#E0E0E0"/>
<path d="M221.15 176.26H159.48V183.25H221.15V176.26Z" fill="#E0E0E0"/>
<path d="M288.7 73.98H249.34V80.97H288.7V73.98Z" fill="#E0E0E0"/>
<path d="M286.68 85.11H247.32V92.1H286.68V85.11Z" fill="#E0E0E0"/>
<path d="M269.7 94.89H245.43V101.88H269.7V94.89Z" fill="#E0E0E0"/>
<path d="M342.32 25.49L330.03 25.99L328.7 29.43C328.32 30.3261 328.117 31.2869 328.1 32.26C328.088 32.6903 328.195 33.1155 328.411 33.4881C328.626 33.8607 328.941 34.1661 329.32 34.37C330.431 34.7243 331.595 34.8833 332.76 34.84V35.84L321.32 36.26V35.26C322.482 35.0587 323.541 34.4659 324.32 33.58C325.504 31.9403 326.437 30.1339 327.09 28.22L338.32 0H338.81L352.5 28C353.833 30.6667 354.887 32.3333 355.66 33C356.376 33.551 357.257 33.8435 358.16 33.83V34.77L341.33 35.45V34.5H342.03C343.016 34.546 343.994 34.3101 344.85 33.82C345.032 33.6811 345.175 33.4978 345.266 33.2877C345.357 33.0777 345.393 32.8478 345.37 32.62C345.354 32.2989 345.29 31.9821 345.18 31.68C345.18 31.53 344.85 30.89 344.33 29.79L342.32 25.49ZM341.37 23.63L335.71 11.85L330.85 24.05L341.37 23.63Z" fill="#E0E0E0"/>
<path d="M374.62 106.34H315.36V153.72H374.62V106.34Z" fill="#F5F5F5"/>
<path d="M372.49 109.33H317.4V150.74H372.49V109.33Z" fill="#EBEBEB"/>
<path d="M325.38 158.4L335.48 127.89L351.88 139.39L356.82 128.66L377.63 140.95L325.38 158.4Z" fill="#E0E0E0"/>
<path d="M350.58 119.52C350.852 120.334 350.877 121.211 350.651 122.039C350.425 122.867 349.959 123.61 349.311 124.173C348.663 124.736 347.862 125.094 347.01 125.202C346.159 125.31 345.294 125.163 344.526 124.78C343.758 124.397 343.121 123.794 342.695 123.048C342.269 122.303 342.075 121.448 342.135 120.592C342.195 119.735 342.508 118.916 343.034 118.237C343.56 117.559 344.276 117.052 345.09 116.78C345.63 116.598 346.201 116.525 346.77 116.564C347.339 116.604 347.894 116.755 348.404 117.01C348.914 117.264 349.369 117.617 349.742 118.048C350.116 118.479 350.4 118.979 350.58 119.52Z" fill="#E0E0E0"/>
<path d="M440.02 44.85H368.43V134.39H440.02V44.85Z" fill="#F5F5F5"/>
<path d="M455.04 63.1L454.61 63.03L453.37 62.81L448.59 61.9L430.59 58.44L367.12 46.13L367.4 45.94C363.31 66.85 358.63 90.82 353.67 116.19L353.46 115.87L441.32 133.14L441.06 133.31C445.25 112.17 448.72 94.64 451.15 82.39C452.38 76.26 453.34 71.45 454 68.16C454.33 66.52 454.58 65.27 454.76 64.4C454.94 63.53 455.04 63.1 455.04 63.1C455.04 63.1 454.97 63.53 454.81 64.37C454.65 65.21 454.42 66.47 454.11 68.09C453.48 71.37 452.56 76.17 451.39 82.29C449.01 94.59 445.6 112.18 441.5 133.4L441.45 133.62H441.24L353.32 116.41L353.06 116.36L353.11 116.1C358.11 90.74 362.8 66.77 366.9 45.86L366.95 45.62L367.18 45.67L430.79 58.23L448.71 61.81L453.44 62.81L454.64 63.06L455.04 63.1Z" fill="#E0E0E0"/>
<path d="M435.45 47.99H372.88V131.24H435.45V47.99Z" fill="#EBEBEB"/>
<path d="M357.3 112.32L393.31 79.74L406.31 107.08L420.8 96.66L439 128.32L357.3 112.32Z" fill="#E0E0E0"/>
<path d="M419.41 79.99C419.162 81.2639 418.542 82.4357 417.629 83.3572C416.715 84.2787 415.548 84.9084 414.276 85.1667C413.004 85.425 411.685 85.3003 410.484 84.8083C409.283 84.3164 408.255 83.4792 407.53 82.4029C406.805 81.3266 406.415 80.0593 406.411 78.7616C406.406 77.4638 406.786 76.1938 407.504 75.1123C408.221 74.0308 409.243 73.1863 410.44 72.6857C411.637 72.1851 412.956 72.0509 414.23 72.3C415.075 72.4641 415.88 72.7932 416.598 73.2687C417.316 73.7441 417.934 74.3565 418.415 75.0708C418.896 75.785 419.231 76.5872 419.402 77.4313C419.573 78.2754 419.576 79.1449 419.41 79.99Z" fill="#E0E0E0"/>
<path d="M29.06 6.94L33.6 59.92L54.15 65.49L94.01 60.86L88.4 1.22L29.06 6.94Z" fill="#F5F5F5"/>
<path d="M39.87 55.16L33.61 59.92C35.9894 61.983 38.7716 63.529 41.78 64.46C45.8019 65.5789 50.0006 65.9184 54.15 65.46C54.15 65.46 44.66 63.85 39.87 55.16Z" fill="#EBEBEB"/>
<path d="M83.6 20.73C83.6 20.83 73.52 21.88 61.07 23.09C48.62 24.3 38.5 25.2 38.49 25.09C38.48 24.98 48.57 23.91 61.03 22.73C73.49 21.55 83.59 20.6 83.6 20.73Z" fill="#E0E0E0"/>
<path d="M84.19 28.85C84.19 28.95 74.11 30.01 61.66 31.22C49.21 32.43 39.09 33.32 39.08 33.22C39.07 33.12 49.16 32.06 61.62 30.85C74.08 29.64 84.18 28.73 84.19 28.85Z" fill="#E0E0E0"/>
<path d="M85.14 36.04C85.14 36.14 75.06 37.2 62.61 38.4C50.16 39.6 40.05 40.51 40.04 40.4C40.03 40.29 50.11 39.25 62.57 38.04C75.03 36.83 85.13 35.94 85.14 36.04Z" fill="#E0E0E0"/>
<path d="M85.77 42.99C85.77 43.08 75.69 44.14 63.23 45.35C50.77 46.56 40.67 47.46 40.66 47.35C40.65 47.24 50.74 46.19 63.2 44.99C75.66 43.79 85.76 42.89 85.77 42.99Z" fill="#E0E0E0"/>
<path d="M16.26 99.08L58.42 340.5L236.2 312.59L244.44 292.68L196.34 69.45L29.7 79.39L16.26 99.08Z" fill="#E0E0E0"/>
<path opacity="0.3" d="M58.42 340.5L71.05 321.15L28.89 79.72L16.26 99.08L58.42 340.5Z" fill="black"/>
<path d="M28.89 79.72L71.05 321.15L244.44 292.68L200.63 55.23L28.89 79.72Z" fill="#FAFAFA"/>
<path d="M28.89 79.73L200.6 55.03H200.81V55.23C213.1 121.54 228.32 203.73 244.7 292.63L244.75 292.9L244.48 292.95L241.62 293.42L71.09 321.42H70.85V321.18C46.05 178.59 29.26 81.85 28.89 79.73C29.26 81.86 46.25 178.56 71.29 321.11L71.01 320.92L241.53 292.92L244.39 292.45L244.17 292.76C227.79 203.85 212.65 121.66 200.42 55.3L200.66 55.47L28.89 79.73Z" fill="#263238"/>
<path d="M138.61 219.7C154.93 219.7 168.16 206.47 168.16 190.15C168.16 173.83 154.93 160.6 138.61 160.6C122.29 160.6 109.06 173.83 109.06 190.15C109.06 206.47 122.29 219.7 138.61 219.7Z" fill="#8471B0"/>
<path d="M125.06 197.91L123.72 189.4L153.19 184.73L154.45 192.73C154.45 192.73 152.65 199.61 140.73 201.49C128.81 203.37 125.06 197.91 125.06 197.91Z" fill="white"/>
<path d="M119.07 189.45L140.1 193.19L158.34 182.93L137.28 179.6L119.07 189.45Z" fill="white"/>
<path d="M179.1 115.12H73.31C72.0121 115.12 70.96 116.172 70.96 117.47V119.73C70.96 121.028 72.0121 122.08 73.31 122.08H179.1C180.398 122.08 181.45 121.028 181.45 119.73V117.47C181.45 116.172 180.398 115.12 179.1 115.12Z" fill="#E0E0E0"/>
<path d="M162.33 129.49H95.24C93.9421 129.49 92.89 130.542 92.89 131.84V134.1C92.89 135.398 93.9421 136.45 95.24 136.45H162.33C163.628 136.45 164.68 135.398 164.68 134.1V131.84C164.68 130.542 163.628 129.49 162.33 129.49Z" fill="#E0E0E0"/>
<path d="M186.19 277.62H119.1C117.802 277.62 116.75 278.672 116.75 279.97V282.23C116.75 283.528 117.802 284.58 119.1 284.58H186.19C187.488 284.58 188.54 283.528 188.54 282.23V279.97C188.54 278.672 187.488 277.62 186.19 277.62Z" fill="#E0E0E0"/>
<path d="M235.51 299.39L234.67 299.55L232.19 299.98L222.6 301.58L186.99 307.42L66.69 326.97L66.43 327.02V326.76C64.75 317.21 62.98 307.21 61.18 297.02C51.5 242.27 42.78 192.73 36.47 156.84C33.34 138.9 30.81 124.39 29.05 114.35C28.19 109.35 27.52 105.44 27.05 102.79C26.83 101.47 26.66 100.47 26.54 99.79C26.42 99.11 26.39 98.79 26.39 98.79C26.39 98.79 26.47 99.14 26.6 99.79C26.73 100.44 26.91 101.48 27.15 102.79C27.63 105.44 28.33 109.33 29.24 114.33C31.03 124.33 33.62 138.87 36.82 156.79C43.17 192.67 51.95 242.21 61.64 296.95C63.44 307.13 65.2 317.14 66.89 326.69L66.58 326.47L186.92 307.09L222.55 301.41L232.15 299.9L234.64 299.52L235.51 299.39Z" fill="#263238"/>
<path d="M222.32 308.47L221.53 308.63L219.19 309.04L210.13 310.58L176.45 316.2L62.15 335.12H61.89V334.87L55.32 299.2C45.53 245.2 36.67 196.35 30.25 160.97C27.07 143.29 24.49 128.97 22.71 119.07C21.84 114.13 21.15 110.29 20.71 107.67C20.49 106.38 20.31 105.39 20.2 104.67C20.09 103.95 20.04 103.67 20.04 103.67C20.04 103.67 20.12 104 20.25 104.67L20.82 107.67C21.3 110.28 22.02 114.11 22.94 119.04L30.64 160.91C37.1 196.29 46.02 245.14 55.87 299.11C58.09 311.34 60.27 323.31 62.36 334.82L62.06 334.61L176.37 315.87L210.07 310.4L219.14 308.95L221.49 308.59L222.32 308.47Z" fill="#263238"/>
<path d="M33.08 181.96L29.17 187.48L38.66 244.37L44.31 246.29L33.08 181.96Z" fill="#263238"/>
<path d="M65.97 179.11H38.49V244.41H65.97V179.11Z" fill="#263238"/>
<path d="M67.06 174.35H65.27C64.2482 174.35 63.42 175.178 63.42 176.2V242.34C63.42 243.362 64.2482 244.19 65.27 244.19H67.06C68.0817 244.19 68.91 243.362 68.91 242.34V176.2C68.91 175.178 68.0817 174.35 67.06 174.35Z" fill="#263238"/>
<path d="M28.4 228.5C25.4004 228.488 22.5065 227.391 20.253 225.411C17.9994 223.431 16.5384 220.703 16.14 217.73C15.7961 215.19 16.2477 212.606 17.4328 210.333C18.6179 208.06 20.4781 206.211 22.7576 205.039C25.037 203.867 27.6237 203.43 30.1617 203.788C32.6996 204.147 35.0642 205.283 36.93 207.04L53.83 197.44C54.1534 197.257 54.5162 197.154 54.8878 197.14C55.2594 197.126 55.6289 197.202 55.9652 197.36C56.3014 197.519 56.5945 197.756 56.8199 198.052C57.0452 198.348 57.1962 198.694 57.26 199.06L61.26 221.95C61.3258 222.314 61.3032 222.689 61.194 223.043C61.0847 223.396 60.8922 223.718 60.6324 223.982C60.3727 224.246 60.0534 224.443 59.7014 224.558C59.3494 224.672 58.9751 224.7 58.61 224.64L39.53 221.64C38.497 223.708 36.9085 225.446 34.9426 226.662C32.9767 227.877 30.7111 228.52 28.4 228.52V228.5ZM28.4 205.69C27.8978 205.687 27.3963 205.724 26.9 205.8C24.2097 206.237 21.7921 207.696 20.1508 209.872C18.5095 212.048 17.7713 214.773 18.09 217.48C18.3929 219.744 19.4325 221.845 21.0483 223.459C22.6642 225.073 24.7664 226.11 27.0304 226.41C29.2944 226.711 31.5943 226.257 33.5751 225.121C35.5558 223.984 37.1073 222.226 37.99 220.12L38.29 219.4L58.93 222.73C58.9789 222.741 59.0298 222.738 59.0772 222.722C59.1247 222.706 59.1671 222.678 59.2 222.64C59.2354 222.605 59.2621 222.563 59.2778 222.516C59.2934 222.469 59.2976 222.419 59.29 222.37L55.29 199.47C55.2804 199.42 55.259 199.373 55.2277 199.333C55.1964 199.293 55.1561 199.261 55.11 199.24C55.065 199.217 55.0154 199.205 54.965 199.205C54.9146 199.205 54.8649 199.217 54.82 199.24L36.57 209.56L36.03 208.99C35.0523 207.957 33.8738 207.135 32.5669 206.575C31.2599 206.014 29.8521 205.727 28.43 205.73L28.4 205.69Z" fill="#455A64"/>
<path d="M69 241.48C68.9336 241.271 68.8867 241.057 68.86 240.84C68.77 240.36 68.66 239.75 68.51 239C68.21 237.33 67.79 235 67.27 232.2C66.27 226.41 64.83 218.51 63.27 209.78C61.71 201.05 60.38 193.13 59.38 187.32C58.91 184.5 58.53 182.19 58.26 180.51C58.14 179.75 58.05 179.13 57.98 178.65C57.9332 178.437 57.913 178.218 57.92 178C57.988 178.206 58.0415 178.417 58.08 178.63C58.18 179.11 58.31 179.72 58.46 180.47C58.78 182.14 59.22 184.47 59.75 187.26C60.82 192.99 62.25 200.92 63.75 209.68C65.25 218.44 66.65 226.39 67.59 232.14C68.07 235.02 68.43 237.35 68.67 238.96C68.78 239.77 68.88 240.39 68.92 240.83C68.9733 241.043 69.0002 241.261 69 241.48Z" fill="#455A64"/>
<path d="M43.77 246.51C43.7106 246.296 43.6639 246.079 43.63 245.86C43.54 245.39 43.43 244.78 43.29 244.02C42.98 242.35 42.56 240.02 42.04 237.23C41.04 231.43 39.6 223.53 38.04 214.8C36.48 206.07 35.16 198.15 34.15 192.35C33.68 189.52 33.3 187.21 33.03 185.54C32.91 184.77 32.82 184.16 32.75 183.68C32.703 183.463 32.6829 183.242 32.69 183.02C32.7657 183.228 32.8226 183.442 32.86 183.66C32.95 184.14 33.08 184.75 33.23 185.5C33.55 187.17 33.99 189.5 34.52 192.28C35.59 198.02 37.02 205.94 38.52 214.71C40.02 223.48 41.42 231.41 42.37 237.16C42.84 240.04 43.21 242.37 43.44 243.99C43.55 244.8 43.65 245.42 43.69 245.85C43.7433 246.066 43.7702 246.288 43.77 246.51Z" fill="#455A64"/>
<path d="M158.32 182.93C157.884 183.263 157.423 183.561 156.94 183.82L153.08 186.09C149.8 187.99 145.25 190.58 140.21 193.42L140.12 193.47H140.03H139.82C134.07 192.47 128.82 191.47 125.12 190.78L120.67 189.91C120.119 189.825 119.577 189.691 119.05 189.51C119.607 189.535 120.162 189.599 120.71 189.7L125.18 190.41C128.96 191.03 134.18 191.93 139.92 192.95H140.12H139.94C144.99 190.12 149.57 187.58 152.94 185.76L156.89 183.64C157.344 183.36 157.822 183.122 158.32 182.93Z" fill="#263238"/>
<path d="M94.5695 100.03L94.2717 98.1873L102.955 96.7839L103.253 98.6269L100.016 99.1501L101.427 107.88L99.2172 108.237L97.8064 99.5071L94.5695 100.03ZM106.094 107.125L104.385 96.5528L106.62 96.1916L107.325 100.554L111.863 99.8204L111.158 95.4582L113.388 95.0978L115.097 105.67L112.867 106.031L112.161 101.663L107.623 102.397L108.329 106.764L106.094 107.125ZM116.94 105.373L115.231 94.7999L122.355 93.6485L122.653 95.4915L117.764 96.2816L118.171 98.8009L122.694 98.07L122.992 99.913L118.469 100.644L118.877 103.168L123.787 102.375L124.085 104.218L116.94 105.373ZM130.359 95.475C130.251 95.0653 130.021 94.7704 129.671 94.5904C129.32 94.4105 128.876 94.3639 128.34 94.4506C127.975 94.5096 127.675 94.611 127.441 94.7549C127.205 94.8953 127.035 95.0658 126.93 95.2665C126.828 95.4666 126.796 95.6802 126.832 95.9073C126.856 96.0977 126.922 96.2565 127.031 96.3837C127.143 96.5104 127.285 96.6128 127.457 96.691C127.628 96.7658 127.821 96.8246 128.036 96.8675C128.251 96.907 128.478 96.9339 128.717 96.9483L129.703 97.0219C130.181 97.0506 130.627 97.1199 131.04 97.2296C131.453 97.3394 131.821 97.4971 132.144 97.7028C132.467 97.9084 132.733 98.169 132.943 98.4847C133.157 98.7999 133.301 99.1774 133.375 99.6174C133.476 100.265 133.402 100.853 133.152 101.38C132.904 101.904 132.496 102.346 131.925 102.707C131.358 103.064 130.644 103.311 129.784 103.45C128.93 103.588 128.165 103.578 127.49 103.418C126.818 103.259 126.263 102.951 125.826 102.496C125.391 102.036 125.104 101.427 124.964 100.67L127.127 100.32C127.208 100.671 127.358 100.95 127.575 101.159C127.795 101.363 128.067 101.501 128.389 101.573C128.714 101.64 129.069 101.643 129.455 101.581C129.833 101.519 130.153 101.411 130.414 101.256C130.679 101.1 130.872 100.912 130.996 100.691C131.119 100.469 131.16 100.232 131.119 99.9768C131.08 99.7394 130.977 99.5511 130.81 99.4122C130.646 99.2727 130.421 99.1678 130.134 99.0976C129.851 99.0269 129.509 98.9762 129.108 98.9456L127.91 98.8426C126.984 98.7698 126.225 98.5445 125.635 98.1668C125.044 97.7891 124.687 97.2093 124.564 96.4275C124.457 95.7879 124.537 95.2011 124.804 94.6671C125.075 94.1325 125.491 93.6821 126.053 93.3157C126.616 92.9494 127.282 92.7039 128.053 92.5793C128.838 92.4525 129.544 92.4761 130.173 92.65C130.805 92.8233 131.323 93.1227 131.727 93.5483C132.131 93.9738 132.389 94.5007 132.502 95.1288L130.359 95.475ZM135.894 91.4605L137.602 102.033L135.367 102.394L133.658 91.8218L135.894 91.4605ZM143.96 93.277C143.851 92.8672 143.621 92.5724 143.271 92.3924C142.921 92.2124 142.477 92.1658 141.94 92.2526C141.575 92.3116 141.275 92.413 141.041 92.5568C140.806 92.6972 140.636 92.8678 140.53 93.0684C140.428 93.2685 140.396 93.4821 140.433 93.7093C140.456 93.8997 140.523 94.0585 140.631 94.1857C140.744 94.3123 140.886 94.4148 141.057 94.493C141.228 94.5678 141.421 94.6266 141.637 94.6695C141.851 94.709 142.078 94.7359 142.317 94.7502L143.304 94.8239C143.782 94.8526 144.227 94.9218 144.64 95.0316C145.054 95.1414 145.422 95.2991 145.745 95.5047C146.067 95.7103 146.334 95.971 146.544 96.2867C146.757 96.6018 146.901 96.9794 146.976 97.4193C147.077 98.0669 147.002 98.6546 146.752 99.1824C146.505 99.7062 146.096 100.148 145.526 100.509C144.958 100.865 144.244 101.113 143.384 101.252C142.53 101.39 141.766 101.38 141.09 101.22C140.418 101.061 139.864 100.753 139.426 100.298C138.992 99.838 138.704 99.2294 138.564 98.4715L140.727 98.122C140.809 98.4725 140.958 98.7521 141.175 98.9607C141.396 99.1652 141.667 99.3032 141.989 99.3748C142.314 99.4423 142.67 99.4449 143.055 99.3826C143.434 99.3214 143.754 99.2132 144.015 99.058C144.279 98.9023 144.473 98.7138 144.596 98.4926C144.719 98.2714 144.76 98.0335 144.719 97.7788C144.681 97.5413 144.578 97.3531 144.41 97.2142C144.247 97.0746 144.021 96.9698 143.735 96.8996C143.451 96.8289 143.109 96.7782 142.709 96.7476L141.511 96.6445C140.584 96.5718 139.826 96.3465 139.235 95.9688C138.644 95.591 138.288 95.0112 138.165 94.2294C138.058 93.5899 138.138 93.0031 138.405 92.4691C138.675 91.9345 139.091 91.484 139.654 91.1177C140.216 90.7514 140.883 90.5059 141.653 90.3813C142.438 90.2545 143.145 90.278 143.773 90.4519C144.405 90.6252 144.923 90.9247 145.327 91.3502C145.732 91.7758 145.99 92.3026 146.102 92.9308L143.96 93.277Z" fill="#263238"/>
<path d="M173.5 299.52H258.76V344.26H173.5C168.819 344.26 164.33 342.4 161.02 339.09C157.71 335.78 155.85 331.291 155.85 326.61V317.16C155.85 312.479 157.71 307.99 161.02 304.68C164.33 301.37 168.819 299.51 173.5 299.51V299.52Z" fill="#8471B0"/>
<path d="M236.47 299.52H416.32C417.097 299.52 417.842 299.829 418.392 300.378C418.941 300.928 419.25 301.673 419.25 302.45V304.02C419.25 304.797 418.941 305.542 418.392 306.092C417.842 306.641 417.097 306.95 416.32 306.95H236.47V299.52Z" fill="#8471B0"/>
<path d="M236.47 336.84H416.32C416.705 336.84 417.086 336.916 417.441 337.063C417.797 337.21 418.12 337.426 418.392 337.698C418.664 337.97 418.88 338.293 419.027 338.649C419.174 339.004 419.25 339.385 419.25 339.77V341.34C419.25 342.117 418.941 342.862 418.392 343.412C417.842 343.961 417.097 344.27 416.32 344.27H236.47V336.84Z" fill="#8471B0"/>
<path d="M413.78 336.84H256.87C254.907 336.84 252.964 336.453 251.15 335.702C249.337 334.95 247.69 333.849 246.302 332.461C244.915 331.072 243.815 329.424 243.064 327.61C242.314 325.797 241.929 323.853 241.93 321.89C241.93 317.928 243.504 314.128 246.306 311.326C249.108 308.524 252.908 306.95 256.87 306.95H413.78C411.701 311.658 410.627 316.748 410.627 321.895C410.627 327.042 411.701 332.132 413.78 336.84Z" fill="#F5F5F5"/>
<path opacity="0.3" d="M241.93 344.27H173.85C169.076 344.27 164.498 342.374 161.122 338.998C157.746 335.622 155.85 331.044 155.85 326.27V317.38C155.85 312.643 157.732 308.1 161.081 304.751C164.43 301.402 168.973 299.52 173.71 299.52H243.62C227.43 309.34 228.64 332.84 241.93 344.27Z" fill="black"/>
<path d="M394.72 323.28C394.72 323.43 362.51 323.55 322.79 323.55C283.07 323.55 250.86 323.43 250.86 323.28C250.86 323.13 283.06 323.01 322.79 323.01C362.52 323.01 394.72 323.13 394.72 323.28Z" fill="#263238"/>
<path d="M409.52 329.92C409.52 330.07 377.31 330.19 337.59 330.19C297.87 330.19 265.66 330.07 265.66 329.92C265.66 329.77 297.86 329.66 337.59 329.66C377.32 329.66 409.52 329.78 409.52 329.92Z" fill="#263238"/>
<path d="M405.16 313.86C405.16 314.01 372.95 314.13 333.23 314.13C293.51 314.13 261.29 314.01 261.29 313.86C261.29 313.71 293.49 313.59 333.23 313.59C372.97 313.59 405.16 313.73 405.16 313.86Z" fill="#263238"/>
<path d="M234.05 341.13C234.05 341.28 218.97 341.4 200.38 341.4C181.79 341.4 166.71 341.28 166.71 341.13C166.71 340.98 181.78 340.86 200.38 340.86C218.98 340.86 234.05 340.98 234.05 341.13Z" fill="#263238"/>
<path d="M234.05 303.24C234.05 303.39 218.97 303.51 200.38 303.51C181.79 303.51 166.71 303.39 166.71 303.24C166.71 303.09 181.78 302.97 200.38 302.97C218.98 302.97 234.05 303.09 234.05 303.24Z" fill="#263238"/>
<path d="M135.86 375.67H250.75V433.29H135.86C131.179 433.29 126.69 431.43 123.38 428.12C120.07 424.81 118.21 420.321 118.21 415.64V393.32C118.21 388.639 120.07 384.15 123.38 380.84C126.69 377.53 131.179 375.67 135.86 375.67Z" fill="#8471B0"/>
<path d="M222.04 375.67H454.47C455.247 375.67 455.992 375.979 456.542 376.528C457.091 377.078 457.4 377.823 457.4 378.6V382.31C457.4 383.087 457.091 383.832 456.542 384.382C455.992 384.931 455.247 385.24 454.47 385.24H222.04V375.67Z" fill="#8471B0"/>
<path d="M222.04 423.73H454.47C455.247 423.73 455.992 424.039 456.542 424.588C457.091 425.138 457.4 425.883 457.4 426.66V430.37C457.4 431.147 457.091 431.892 456.542 432.442C455.992 432.991 455.247 433.3 454.47 433.3H222.04V423.73Z" fill="#8471B0"/>
<path d="M450.38 423.73H248.32C243.216 423.727 238.323 421.698 234.715 418.088C231.107 414.479 229.08 409.584 229.08 404.48C229.08 401.953 229.578 399.451 230.545 397.117C231.511 394.783 232.929 392.662 234.715 390.875C236.502 389.089 238.623 387.671 240.957 386.705C243.291 385.738 245.793 385.24 248.32 385.24H450.38C447.7 391.302 446.315 397.857 446.315 404.485C446.315 411.113 447.7 417.668 450.38 423.73Z" fill="#F5F5F5"/>
<path opacity="0.3" d="M229.06 433.29H135.63C133.343 433.29 131.078 432.839 128.965 431.964C126.852 431.088 124.932 429.805 123.316 428.187C121.699 426.569 120.417 424.649 119.542 422.536C118.668 420.422 118.219 418.157 118.22 415.87V393.73C118.22 388.956 120.116 384.378 123.492 381.002C126.868 377.626 131.446 375.73 136.22 375.73H231.22C210.39 388.31 211.95 418.58 229.06 433.29Z" fill="black"/>
<path d="M425.83 406.27C425.83 406.42 384.35 406.54 333.2 406.54C282.05 406.54 240.56 406.42 240.56 406.27C240.56 406.12 282.03 406 333.2 406C384.37 406 425.83 406.12 425.83 406.27Z" fill="#263238"/>
<path d="M444.9 414.82C444.9 414.97 403.42 415.09 352.26 415.09C301.1 415.09 259.62 414.97 259.62 414.82C259.62 414.67 301.09 414.56 352.26 414.56C403.43 414.56 444.9 414.73 444.9 414.82Z" fill="#263238"/>
<path d="M439.32 398.33C439.32 398.48 397.85 398.6 346.69 398.6C295.53 398.6 254.05 398.48 254.05 398.33C254.05 398.18 295.52 398.06 346.69 398.06C397.86 398.06 439.32 398.18 439.32 398.33Z" fill="#263238"/>
<path d="M218.91 429.25C218.91 429.4 199.5 429.52 175.55 429.52C151.6 429.52 132.19 429.4 132.19 429.25C132.19 429.1 151.6 428.99 175.55 428.99C199.5 428.99 218.91 429.11 218.91 429.25Z" fill="#263238"/>
<path d="M218.91 380.46C218.91 380.6 199.5 380.72 175.55 380.72C151.6 380.72 132.19 380.6 132.19 380.46C132.19 380.32 151.6 380.19 175.55 380.19C199.5 380.19 218.91 380.31 218.91 380.46Z" fill="#263238"/>
<path d="M190.5 342.89H285.16V375.89H190.5C187.052 375.89 183.746 374.52 181.308 372.082C178.87 369.644 177.5 366.338 177.5 362.89V355.89C177.5 352.442 178.87 349.136 181.308 346.698C183.746 344.26 187.052 342.89 190.5 342.89Z" fill="#455A64"/>
<path d="M261.84 342.89H450C450.814 342.89 451.595 343.213 452.171 343.789C452.747 344.365 453.07 345.146 453.07 345.96V347.6C453.07 348.414 452.747 349.195 452.171 349.771C451.595 350.347 450.814 350.67 450 350.67H261.84V342.9V342.89Z" fill="#455A64"/>
<path d="M261.84 368.11H450C450.814 368.11 451.595 368.433 452.171 369.009C452.747 369.585 453.07 370.366 453.07 371.18V372.82C453.07 373.634 452.747 374.415 452.171 374.991C451.595 375.567 450.814 375.89 450 375.89H261.84V368.12V368.11Z" fill="#455A64"/>
<path d="M447.32 368.11H276.32C274.006 368.11 271.787 367.192 270.15 365.557C268.514 363.922 267.593 361.704 267.59 359.39C267.59 357.075 268.51 354.854 270.147 353.217C271.784 351.58 274.005 350.66 276.32 350.66H447.32C442.947 356.48 442.947 362.297 447.32 368.11Z" fill="#F5F5F5"/>
<path opacity="0.3" d="M267.54 375.88H190.54C188.82 375.88 187.117 375.541 185.528 374.883C183.94 374.224 182.496 373.259 181.28 372.043C180.065 370.826 179.101 369.382 178.444 367.792C177.786 366.203 177.449 364.5 177.45 362.78V356.26C177.449 354.505 177.793 352.766 178.464 351.144C179.135 349.522 180.119 348.048 181.359 346.807C182.6 345.565 184.073 344.58 185.695 343.908C187.317 343.236 189.055 342.89 190.81 342.89H269.32C252.37 350.13 253.64 367.46 267.54 375.88Z" fill="black"/>
<path d="M427.41 358.01C427.41 358.16 393.71 358.28 352.15 358.28C310.59 358.28 276.89 358.16 276.89 358.01C276.89 357.86 310.58 357.75 352.15 357.75C393.72 357.75 427.41 357.87 427.41 358.01Z" fill="#263238"/>
<path d="M442.9 362.73C442.9 362.88 409.2 363 367.64 363C326.08 363 292.38 362.88 292.38 362.73C292.38 362.58 326.07 362.46 367.64 362.46C409.21 362.46 442.9 362.56 442.9 362.73Z" fill="#263238"/>
<path d="M259.32 372.6C259.32 372.75 243.55 372.87 224.09 372.87C204.63 372.87 188.86 372.75 188.86 372.6C188.86 372.45 204.63 372.33 224.09 372.33C243.55 372.33 259.32 372.45 259.32 372.6Z" fill="#263238"/>
<path d="M259.32 346.78C259.32 346.93 243.55 347.04 224.09 347.04C204.63 347.04 188.86 346.93 188.86 346.78C188.86 346.63 204.63 346.51 224.09 346.51C243.55 346.51 259.32 346.63 259.32 346.78Z" fill="#263238"/>
<path d="M450.82 342.89C450.82 343.04 392.95 343.16 321.59 343.16C250.23 343.16 192.32 343.04 192.32 342.89C192.32 342.74 250.17 342.62 321.56 342.62C392.95 342.62 450.82 342.73 450.82 342.89Z" fill="#263238"/>
<path d="M347.05 313.37V331.29L353.26 327.31L360.18 331.29V313.37H347.05Z" fill="#8471B0"/>
<path d="M410.16 135.5L378.89 161.55L331.33 255.51L360.98 268.91L407.24 176.76L410.16 135.5Z" fill="#8471B0"/>
<g opacity="0.7">
<path d="M407.24 176.73C406.878 176.82 406.5 176.824 406.135 176.743C405.771 176.663 405.43 176.499 405.14 176.264C404.849 176.03 404.617 175.732 404.461 175.393C404.305 175.054 404.229 174.683 404.24 174.31C403.254 175.458 401.932 176.268 400.461 176.627C398.99 176.985 397.444 176.873 396.04 176.307C394.636 175.74 393.445 174.748 392.634 173.47C391.824 172.192 391.434 170.691 391.52 169.18C390.202 169.889 388.72 170.236 387.224 170.183C385.728 170.131 384.273 169.682 383.008 168.882C381.743 168.082 380.714 166.96 380.025 165.631C379.337 164.303 379.014 162.815 379.09 161.32L410.09 135.47L407.24 176.73Z" fill="white"/>
</g>
<path d="M397.58 145.98C397.58 145.98 398.06 153.76 408.96 152.4L410.16 135.5L397.58 145.98Z" fill="#8471B0"/>
<path opacity="0.3" d="M391.56 169.21L345.71 261.5L331.33 255.5L378.89 161.5L379.13 161.3C379.059 162.553 379.278 163.806 379.77 164.96C380.427 166.476 381.493 167.778 382.85 168.72C384.516 169.858 386.538 170.352 388.54 170.11C389.593 169.997 390.617 169.692 391.56 169.21Z" fill="black"/>
<path opacity="0.3" d="M404.32 174.34L357.22 267.19L361.02 268.91L407.24 176.73C406.613 176.844 405.966 176.721 405.424 176.385C404.883 176.048 404.486 175.523 404.31 174.91C404.295 174.72 404.298 174.529 404.32 174.34Z" fill="black"/>
<path d="M391.32 160.25C391.222 160.365 391.166 160.509 391.16 160.66C391.162 160.878 391.244 161.088 391.392 161.249C391.54 161.41 391.743 161.51 391.96 161.53C392.669 161.561 393.37 161.365 393.96 160.97C394.333 160.751 394.63 160.423 394.81 160.03C394.909 159.817 394.953 159.583 394.938 159.348C394.922 159.114 394.847 158.888 394.72 158.69C394.555 158.485 394.348 158.318 394.114 158.199C393.88 158.08 393.623 158.012 393.36 158C392.782 157.949 392.199 157.983 391.63 158.1C390.357 158.312 389.141 158.785 388.06 159.49C387.771 159.668 387.524 159.905 387.334 160.186C387.144 160.467 387.017 160.786 386.96 161.12C386.945 161.47 387.017 161.818 387.168 162.134C387.32 162.45 387.547 162.723 387.83 162.93C388.487 163.308 389.213 163.55 389.965 163.643C390.718 163.735 391.481 163.677 392.21 163.47C393.657 163.166 394.992 162.469 396.07 161.457C397.148 160.444 397.926 159.155 398.32 157.73C398.387 157.415 398.381 157.088 398.301 156.776C398.221 156.464 398.07 156.174 397.86 155.93C397.436 155.476 396.907 155.133 396.32 154.93C395.264 154.543 394.154 154.32 393.03 154.27C391.391 154.184 389.752 154.428 388.21 154.99C387.67 155.19 387.21 155.38 386.98 155.51C386.75 155.64 386.56 155.71 386.56 155.71C387.071 155.386 387.614 155.114 388.18 154.9C389.726 154.308 391.376 154.04 393.03 154.11C394.176 154.149 395.31 154.364 396.39 154.75C397.008 154.962 397.564 155.323 398.01 155.8C398.245 156.07 398.415 156.392 398.505 156.739C398.595 157.086 398.604 157.449 398.53 157.8C398.014 159.656 396.871 161.276 395.296 162.386C393.722 163.496 391.812 164.027 389.89 163.89C389.103 163.849 388.343 163.586 387.7 163.13C387.378 162.908 387.118 162.608 386.943 162.258C386.768 161.909 386.685 161.521 386.7 161.13C386.762 160.765 386.901 160.417 387.108 160.11C387.315 159.803 387.585 159.544 387.9 159.35C389.009 158.631 390.255 158.151 391.56 157.94C392.15 157.829 392.753 157.802 393.35 157.86C393.634 157.877 393.911 157.955 394.163 158.087C394.415 158.22 394.636 158.405 394.81 158.63C394.948 158.851 395.029 159.103 395.045 159.363C395.061 159.624 395.011 159.884 394.9 160.12C394.706 160.539 394.389 160.888 393.99 161.12C393.381 161.512 392.663 161.698 391.94 161.65C391.706 161.627 391.489 161.517 391.333 161.34C391.177 161.164 391.094 160.935 391.1 160.7C391.15 160.33 391.32 160.24 391.32 160.25Z" fill="white"/>
<path d="M408.1 159.73C408.1 159.73 407.64 159.66 406.82 159.73C405.652 159.807 404.51 160.112 403.46 160.63C401.915 161.422 400.466 162.388 399.14 163.51C397.526 164.93 395.688 166.072 393.7 166.89C391.65 167.595 389.437 167.678 387.34 167.13C385.632 166.679 384.063 165.814 382.77 164.61C381.895 163.779 381.167 162.805 380.62 161.73C380.412 161.353 380.238 160.958 380.1 160.55C380.157 160.643 380.207 160.74 380.25 160.84C380.34 161.04 380.49 161.33 380.69 161.69C381.276 162.701 382.014 163.615 382.88 164.4C384.163 165.567 385.711 166.405 387.39 166.84C389.452 167.358 391.619 167.268 393.63 166.58C395.592 165.773 397.409 164.652 399.01 163.26C400.349 162.133 401.82 161.173 403.39 160.4C404.458 159.881 405.623 159.592 406.81 159.55C407.246 159.555 407.679 159.615 408.1 159.73Z" fill="white"/>
<path d="M407.92 169.1C407.347 168.519 406.584 168.164 405.77 168.1C403.794 168.082 401.827 168.373 399.94 168.96C398.028 169.475 396.167 170.165 394.38 171.02C393.69 171.35 393.15 171.64 392.77 171.83C392.584 171.949 392.386 172.049 392.18 172.13C392.354 171.994 392.538 171.87 392.73 171.76C393.09 171.54 393.63 171.22 394.31 170.88C396.086 169.972 397.953 169.255 399.88 168.74C400.939 168.45 402.014 168.223 403.1 168.06C403.987 167.898 404.893 167.861 405.79 167.95C406.403 168.015 406.985 168.251 407.47 168.63C407.642 168.764 407.794 168.922 407.92 169.1Z" fill="white"/>
<path d="M394.94 175.73C395.244 175.414 395.579 175.129 395.94 174.88C396.831 174.225 397.855 173.775 398.94 173.56C399.483 173.449 400.044 173.461 400.582 173.594C401.12 173.727 401.621 173.979 402.05 174.33C402.305 174.546 402.518 174.807 402.68 175.1C402.74 175.205 402.781 175.32 402.8 175.44C402.569 175.066 402.282 174.728 401.95 174.44C401.527 174.121 401.04 173.896 400.523 173.781C400.005 173.665 399.469 173.661 398.95 173.77C397.908 173.989 396.92 174.41 396.04 175.01C395.688 175.271 395.32 175.512 394.94 175.73Z" fill="white"/>
<path d="M408.92 154.08C408.875 154.129 408.825 154.173 408.77 154.21C408.67 154.28 408.52 154.39 408.31 154.52C408.066 154.692 407.791 154.815 407.5 154.88C407.107 154.95 406.702 154.926 406.32 154.81C405.47 154.62 404.52 154.19 403.45 153.81C402.29 153.416 401.099 153.118 399.89 152.92C397.675 152.598 395.438 152.448 393.2 152.47H391.2C390.951 152.495 390.699 152.495 390.45 152.47L391.2 152.41L393.2 152.34C395.447 152.269 397.696 152.4 399.92 152.73C401.146 152.924 402.351 153.232 403.52 153.65C404.6 154.03 405.52 154.47 406.36 154.65C406.673 154.763 407.008 154.803 407.339 154.767C407.671 154.73 407.989 154.619 408.27 154.44C408.481 154.309 408.698 154.189 408.92 154.08Z" fill="white"/>
<path d="M442.06 239V320.91C442.08 321.067 442.156 321.212 442.275 321.317C442.394 321.422 442.547 321.479 442.705 321.479C442.864 321.479 443.017 321.422 443.135 321.317C443.254 321.212 443.331 321.067 443.35 320.91V239C443.331 238.843 443.254 238.698 443.135 238.593C443.017 238.488 442.864 238.43 442.705 238.43C442.547 238.43 442.394 238.488 442.275 238.593C442.156 238.698 442.08 238.843 442.06 239Z" fill="#8471B0"/>
<path d="M447.32 302.86C447.32 303.774 447.049 304.667 446.542 305.427C446.034 306.186 445.312 306.779 444.468 307.128C443.624 307.478 442.695 307.569 441.799 307.391C440.903 307.213 440.079 306.773 439.433 306.127C438.787 305.481 438.347 304.657 438.169 303.761C437.991 302.865 438.082 301.936 438.432 301.092C438.782 300.248 439.374 299.526 440.133 299.019C440.893 298.511 441.786 298.24 442.7 298.24C443.926 298.24 445.101 298.727 445.967 299.593C446.833 300.46 447.32 301.635 447.32 302.86Z" fill="#8471B0"/>
<path d="M441.42 305.25C441.42 305.25 438.05 308.62 437.04 318.49C436.03 328.36 435.81 333.29 435.81 333.29L444.89 333.85V326.79C444.89 327.12 446.69 332.06 446.69 332.06L453.87 329.7C453.87 329.7 451.32 303.46 441.42 305.25Z" fill="#8471B0"/>
<path d="M394.19 245.7H239.99V301.29H394.19V245.7Z" fill="#263238"/>
<path d="M448.35 236.14H184.6V245.71H448.35V236.14Z" fill="#263238"/>
<path opacity="0.3" d="M239.99 285.52C239.99 285.52 286.83 268.72 317.09 262.52C347.35 256.32 394.19 258.38 394.19 258.38V245.73H239.99V285.52Z" fill="black"/>
<path opacity="0.3" d="M280 236.14H184.6V245.71H280V236.14Z" fill="black"/>
<path d="M446.44 245.73C446.44 245.88 387.79 246 315.44 246C243.09 246 184.44 245.88 184.44 245.73C184.44 245.58 243.07 245.47 315.44 245.47C387.81 245.47 446.44 245.56 446.44 245.73Z" fill="#455A64"/>
<path d="M279.85 245.78C279.49 242.55 279.49 239.29 279.85 236.06C280.197 239.291 280.197 242.549 279.85 245.78Z" fill="#455A64"/>
<path d="M301.84 301.3C301.7 301.3 301.58 290.45 301.58 277.07C301.58 263.69 301.7 252.85 301.84 252.85C301.98 252.85 302.11 263.69 302.11 277.07C302.11 290.45 301.99 301.3 301.84 301.3Z" fill="#455A64"/>
<path d="M78.7701 369.57L96.5001 362.41L110.04 327.04L128.09 336.34C128.09 336.34 126.35 339.83 122.62 348.48C121.17 351.81 116.4 361.12 114.46 365.65C112.665 369.838 109.708 373.425 105.938 375.985C102.169 378.546 97.7452 379.974 93.1902 380.1L76.5502 380.53L78.7701 369.57Z" fill="#FFBF9D"/>
<path d="M69.9601 362.73L67.3201 359.91C66.8071 359.574 66.2033 359.403 65.5901 359.42L57.1101 359.68C56.3185 359.756 55.5542 360.01 54.8738 360.422C54.1935 360.834 53.6147 361.394 53.1801 362.06L50.0901 367.31C50.0901 367.31 48.0201 370.9 48.2801 371.78C48.3959 372.145 48.6429 372.455 48.9735 372.649C49.3041 372.843 49.6948 372.907 50.0701 372.83C50.0701 372.83 50.3701 374.49 50.9201 374.83C51.2385 374.99 51.5861 375.084 51.9418 375.107C52.2976 375.129 52.6542 375.079 52.9901 374.96C53.136 375.275 53.3733 375.539 53.6712 375.717C53.969 375.895 54.3136 375.98 54.6601 375.96C54.8089 375.946 54.9561 375.919 55.1001 375.88C56.1001 375.57 56.5601 373.62 56.5601 373.62L60.8601 372.83C60.8601 372.83 67.0401 376.96 69.2201 379.66C71.4001 382.36 77.1001 380.3 77.1001 380.3L79.2301 370.1L69.9601 362.73Z" fill="#FFBF9D"/>
<path d="M63.7102 363.94C63.107 364.127 62.4813 364.231 61.8502 364.25C60.6802 364.38 59.0301 364.43 57.1601 364.67L57.3602 364.52C57.0387 365.211 56.6712 365.879 56.2602 366.52C55.1309 368.312 53.7577 369.937 52.1802 371.35C51.5604 371.973 50.8404 372.486 50.0502 372.87C50.0502 372.8 50.8002 372.2 51.9202 371.07C53.3908 369.608 54.6954 367.988 55.8102 366.24C56.2201 365.57 56.5902 364.91 56.9002 364.24L56.9602 364.11H57.1002C59.0102 363.9 60.6602 363.92 61.8302 363.88C62.4572 363.835 63.0873 363.855 63.7102 363.94Z" fill="#FF9A6C"/>
<path d="M63.9002 367.99C63.3998 368.234 62.856 368.377 62.3002 368.41C60.919 368.601 59.5153 368.554 58.1502 368.27L58.4602 368.1C58.2803 368.624 58.0733 369.138 57.8401 369.64C57.0669 371.235 55.9823 372.66 54.6502 373.83C54.1301 374.346 53.511 374.75 52.8302 375.02C53.3237 374.503 53.8444 374.012 54.3902 373.55C55.6229 372.351 56.638 370.947 57.3902 369.4C57.6214 368.922 57.8251 368.431 58.0002 367.93L58.0802 367.71H58.3002C60.1457 368.055 62.0294 368.149 63.9002 367.99Z" fill="#FF9A6C"/>
<path d="M74.6801 370.08L67.1101 366.56C66.0943 365.995 64.969 365.654 63.8101 365.56C62.5707 365.669 61.3746 366.07 60.3201 366.73L56.2401 368.83C56.0201 368.95 55.7801 369.09 55.7101 369.32C55.6401 369.55 55.8301 369.95 56.0601 370.18C57.1133 371.176 58.4916 371.758 59.9402 371.816C61.3888 371.875 62.8097 371.408 63.9401 370.5C64.4926 372.302 65.3555 373.994 66.4901 375.5C67.0703 376.255 67.8352 376.847 68.711 377.22C69.5868 377.593 70.5439 377.734 71.4901 377.63" fill="#FFBF9D"/>
<path d="M71.4701 377.73C71.4073 377.761 71.3397 377.781 71.2701 377.79C71.0672 377.84 70.8592 377.867 70.6502 377.87C69.8558 377.873 69.0728 377.681 68.3702 377.31C67.2818 376.741 66.3587 375.9 65.6902 374.87C64.8603 373.547 64.189 372.13 63.6902 370.65L64.0701 370.74C63.4628 371.25 62.7603 371.635 62.0033 371.872C61.2464 372.108 60.4499 372.193 59.6601 372.12C58.8015 372.061 57.9641 371.826 57.2001 371.43C56.809 371.223 56.4432 370.971 56.1101 370.68C55.9297 370.531 55.7655 370.363 55.6202 370.18C55.5259 370.066 55.4581 369.932 55.4218 369.789C55.3855 369.645 55.3815 369.495 55.4101 369.35C55.4427 369.231 55.4994 369.119 55.5768 369.023C55.6543 368.927 55.7507 368.847 55.8601 368.79C56.0401 368.68 56.1901 368.61 56.3501 368.52L57.2901 368.04L59.1401 367.04C60.2894 366.367 61.5147 365.833 62.7901 365.45C64.0147 365.229 65.2778 365.423 66.3801 366C67.3801 366.46 68.3801 366.92 69.1801 367.33L73.1801 369.33C73.6827 369.556 74.1674 369.82 74.6301 370.12C74.101 369.963 73.5859 369.762 73.0901 369.52L68.9901 367.71L66.1701 366.45C65.1536 365.929 63.9918 365.763 62.8702 365.98C61.6398 366.365 60.4585 366.892 59.3501 367.55L57.5102 368.55L56.5701 369.04C56.2501 369.2 55.9101 369.36 55.8901 369.52C55.8701 369.68 56.1201 370.07 56.4301 370.32C56.7354 370.585 57.0711 370.814 57.4301 371C58.1295 371.362 58.8948 371.58 59.6801 371.64C61.1412 371.782 62.5995 371.344 63.7401 370.42L64.0001 370.2L64.1101 370.52C64.5763 371.975 65.2035 373.374 65.9802 374.69C66.5923 375.688 67.4449 376.517 68.4601 377.1C69.3828 377.593 70.4273 377.812 71.4701 377.73Z" fill="#FF9A6C"/>
<path d="M173.12 271C173.19 265.32 174.12 259.66 173.86 254C173.6 248.34 172.15 242.41 168.19 238.34C164.23 234.27 157.32 232.73 152.72 235.98L151.72 240.82C153.54 262.72 153.3 284.97 155.12 306.87C155.36 309.75 157.69 312.36 159 314.93C160.31 317.5 162.94 319.63 165.82 319.45C169.59 319.22 172.06 315.4 173.23 311.8C177.53 298.79 172.95 284.73 173.12 271Z" fill="#263238"/>
<path d="M159.46 241.55C158.702 240.107 157.727 238.788 156.57 237.64C155.987 237.069 155.281 236.637 154.507 236.377C153.733 236.118 152.91 236.036 152.1 236.14C151.719 236.187 151.356 236.332 151.046 236.559C150.736 236.787 150.49 237.09 150.33 237.44C150.08 238.16 150.62 239.13 151.38 239.06L151.54 239.2C153.24 240.707 154.97 242.177 156.73 243.61C157.15 244.002 157.643 244.308 158.18 244.51C158.45 244.608 158.743 244.629 159.024 244.569C159.305 244.509 159.564 244.37 159.77 244.17C160.4 243.47 159.94 242.36 159.46 241.55Z" fill="#8471B0"/>
<path d="M162.67 247.13C157.01 240.21 149.41 236.22 140.47 236.13C135.47 236.04 133.34 237.13 129.71 238.07C126.075 238.948 122.863 241.07 120.63 244.07C118.06 247.72 115.9 251.81 115.41 256.26C114.769 260.807 114.552 265.403 114.76 269.99C114.97 274.599 116.451 279.061 119.04 282.88L130.68 284.88C137.11 285.1 143.63 285.31 149.9 283.88C156.17 282.45 162.25 279.04 165.6 273.55C170.26 265.87 168.32 254.04 162.67 247.13Z" fill="#263238"/>
<path d="M152.32 247.05L136.8 240.88L132.74 241.35C123.62 241.35 117.32 251.45 117.26 258.83C117.2 267.05 117.44 277.07 118.74 283.12C121.37 295.29 131.74 296.3 131.74 296.3C131.74 296.3 131.53 302.79 131.45 306.87L155.22 305.16L156.41 251.22C156.374 250.139 155.934 249.111 155.177 248.339C154.419 247.567 153.4 247.107 152.32 247.05Z" fill="#FFBF9D"/>
<path d="M136.99 280.27C136.894 279.648 136.574 279.082 136.09 278.68C135.65 278.301 135.097 278.077 134.517 278.042C133.937 278.008 133.362 278.165 132.88 278.49C132.38 278.875 131.991 279.387 131.754 279.972C131.517 280.557 131.44 281.195 131.53 281.82C131.797 282.195 132.142 282.509 132.54 282.74C132.939 282.971 133.382 283.114 133.84 283.16C133.983 283.17 134.127 283.17 134.27 283.16C135.012 283.175 135.73 282.899 136.27 282.39C136.542 282.113 136.747 281.779 136.872 281.412C136.997 281.045 137.037 280.655 136.99 280.27Z" fill="#FF9A6C"/>
<path d="M121.37 269.22C121.386 269.631 121.562 270.02 121.861 270.302C122.161 270.584 122.559 270.738 122.97 270.73C123.171 270.734 123.371 270.698 123.559 270.624C123.746 270.55 123.917 270.44 124.061 270.299C124.205 270.159 124.32 269.991 124.399 269.806C124.478 269.62 124.519 269.421 124.52 269.22C124.499 268.809 124.32 268.422 124.02 268.14C123.72 267.858 123.322 267.704 122.91 267.71C122.709 267.706 122.51 267.742 122.323 267.816C122.136 267.89 121.966 268.001 121.823 268.142C121.68 268.282 121.566 268.45 121.488 268.635C121.41 268.82 121.37 269.019 121.37 269.22Z" fill="#263238"/>
<path d="M120.04 262.94C120.24 263.13 121.39 262.19 123.04 262.1C124.69 262.01 126.04 262.79 126.2 262.57C126.36 262.35 126.06 262.11 125.5 261.75C124.739 261.282 123.852 261.062 122.96 261.12C122.08 261.164 121.236 261.486 120.55 262.04C120.09 262.47 119.93 262.85 120.04 262.94Z" fill="#263238"/>
<path d="M130.92 276.23C130.013 275.992 129.078 275.874 128.14 275.88C127.71 275.88 127.29 275.8 127.2 275.5C127.146 275.058 127.222 274.609 127.42 274.21C127.77 273.14 128.14 272.02 128.52 270.84C130.04 266.06 131.12 262.13 130.92 262.07C130.72 262.01 129.34 265.84 127.82 270.63L126.82 274.01C126.574 274.546 126.528 275.153 126.69 275.72C126.759 275.869 126.862 276 126.991 276.102C127.119 276.205 127.27 276.276 127.43 276.31C127.673 276.362 127.922 276.382 128.17 276.37C129.089 276.432 130.012 276.385 130.92 276.23Z" fill="#263238"/>
<path d="M131.72 296.29C137.506 296.061 143.114 294.23 147.92 291C147.92 291 144.01 299.75 131.66 299.28L131.72 296.29Z" fill="#FF9A6C"/>
<path d="M135.97 277.12C135.7 277.12 135.79 278.96 134.29 280.35C132.79 281.74 130.82 281.65 130.82 281.91C130.82 282.17 131.28 282.24 132.1 282.22C133.182 282.177 134.213 281.752 135.01 281.02C135.773 280.321 136.236 279.353 136.3 278.32C136.32 277.55 136.1 277.11 135.97 277.12Z" fill="#263238"/>
<path d="M120.61 257.01C120.92 257.4 122.2 257.06 123.72 257.1C125.24 257.14 126.52 257.47 126.84 257.1C126.98 256.91 126.79 256.52 126.24 256.1C125.496 255.617 124.627 255.363 123.74 255.37C122.853 255.346 121.978 255.579 121.22 256.04C120.67 256.42 120.48 256.81 120.61 257.01Z" fill="#263238"/>
<path d="M139.86 268.8C139.868 269.211 139.717 269.608 139.436 269.909C139.156 270.21 138.77 270.389 138.36 270.41C138.16 270.429 137.958 270.408 137.766 270.348C137.575 270.289 137.397 270.191 137.243 270.062C137.089 269.932 136.963 269.773 136.872 269.595C136.78 269.416 136.725 269.22 136.71 269.02C136.702 268.61 136.852 268.212 137.13 267.91C137.407 267.609 137.791 267.426 138.2 267.4C138.401 267.381 138.605 267.402 138.798 267.462C138.991 267.523 139.17 267.621 139.324 267.751C139.479 267.882 139.606 268.041 139.698 268.222C139.79 268.402 139.845 268.598 139.86 268.8Z" fill="#263238"/>
<path d="M142.96 262.28C142.77 262.49 141.56 261.63 139.86 261.66C138.16 261.69 136.94 262.57 136.75 262.36C136.56 262.15 136.85 261.9 137.39 261.49C138.113 260.969 138.979 260.686 139.87 260.68C140.752 260.66 141.618 260.923 142.34 261.43C142.87 261.82 143.06 262.19 142.96 262.28Z" fill="#263238"/>
<path d="M141.94 256.86C141.62 257.25 140.3 256.86 138.73 256.86C137.16 256.86 135.82 257.17 135.51 256.77C135.37 256.58 135.58 256.19 136.15 255.77C136.94 255.307 137.845 255.075 138.76 255.1C139.669 255.09 140.562 255.343 141.33 255.83C141.9 256.27 142.09 256.67 141.94 256.86Z" fill="#263238"/>
<path d="M154.32 271.84C154.32 270.93 155.21 268.72 156.11 268.53C158.5 268.02 162.85 267.97 163.23 274.09C163.75 282.46 155.23 281.25 155.23 281.01C155.23 280.77 154.47 275 154.32 271.84Z" fill="#FFBF9D"/>
<path d="M157.32 277.81C157.32 277.81 157.47 277.91 157.72 278C158.073 278.143 158.468 278.143 158.82 278C159.68 277.62 160.34 276.17 160.29 274.66C160.266 273.942 160.081 273.238 159.75 272.6C159.656 272.342 159.5 272.112 159.296 271.929C159.092 271.746 158.846 271.616 158.58 271.55C158.411 271.517 158.236 271.543 158.084 271.625C157.933 271.708 157.814 271.84 157.75 272C157.65 272.24 157.75 272.41 157.67 272.42C157.59 272.43 157.48 272.29 157.53 271.94C157.563 271.73 157.67 271.539 157.83 271.4C157.937 271.305 158.062 271.233 158.198 271.188C158.334 271.144 158.478 271.127 158.62 271.14C158.969 271.182 159.3 271.315 159.581 271.526C159.862 271.736 160.082 272.017 160.22 272.34C160.62 273.043 160.843 273.832 160.87 274.64C160.92 276.33 160.15 277.96 158.97 278.38C158.75 278.46 158.514 278.49 158.28 278.467C158.047 278.445 157.821 278.371 157.62 278.25C157.32 278.02 157.32 277.83 157.32 277.81Z" fill="#FF9A6C"/>
<path d="M156.43 268.55L154.32 270.73C145.14 261.94 127.2 239.94 128.21 241.25C132.394 239.695 136.903 239.217 141.32 239.86C148.15 241.02 161.09 244.44 160.89 252.49C160.69 260.54 156.43 268.55 156.43 268.55Z" fill="#263238"/>
<path d="M168.59 266.73C168.563 266.566 168.519 266.405 168.46 266.25C168.308 265.795 168.117 265.353 167.89 264.93C167.024 263.381 165.829 262.04 164.39 261C162.269 259.476 159.901 258.33 157.39 257.61C154.59 256.7 151.44 255.99 148.34 254.61C145.417 253.392 142.645 251.838 140.08 249.98C137.983 248.461 136.028 246.754 134.24 244.88C133.041 243.612 131.916 242.277 130.87 240.88L130.03 239.72C129.936 239.58 129.829 239.449 129.71 239.33C129.78 239.484 129.864 239.631 129.96 239.77C130.13 240.05 130.38 240.46 130.73 240.97C131.731 242.417 132.83 243.794 134.02 245.09C137.967 249.382 142.798 252.766 148.18 255.01C151.159 256.139 154.193 257.117 157.27 257.94C159.77 258.621 162.137 259.72 164.27 261.19C165.694 262.19 166.895 263.474 167.8 264.96C168.32 266.05 168.54 266.73 168.59 266.73Z" fill="#8471B0"/>
<path d="M166.15 268.02C166.177 267.394 166.068 266.77 165.83 266.19C165.199 264.591 164.101 263.218 162.68 262.25C160.553 260.88 158.173 259.952 155.68 259.52C152.697 258.922 149.79 257.997 147.01 256.76C144.242 255.497 141.642 253.895 139.27 251.99C137.34 250.428 135.565 248.683 133.97 246.78C132.883 245.489 131.881 244.13 130.97 242.71L130.26 241.54C130.187 241.399 130.096 241.268 129.99 241.15C130.046 241.298 130.113 241.442 130.19 241.58L130.83 242.8C131.681 244.257 132.637 245.651 133.69 246.97C135.266 248.923 137.039 250.709 138.98 252.3C141.366 254.243 143.991 255.873 146.79 257.15C149.594 258.401 152.534 259.324 155.55 259.9C157.998 260.308 160.342 261.191 162.45 262.5C163.844 263.418 164.942 264.72 165.61 266.25C165.844 266.822 166.025 267.415 166.15 268.02Z" fill="#8471B0"/>
<path d="M156.15 282.73C156.15 282.67 156.86 282.58 158.1 282.25C159.839 281.748 161.439 280.855 162.78 279.64C164.744 277.802 166.236 275.517 167.13 272.98C168.272 269.888 168.887 266.626 168.95 263.33C168.988 261.627 168.851 259.925 168.54 258.25C167.701 254.038 165.723 250.136 162.82 246.97C161.114 245.158 159.231 243.52 157.2 242.08C157.2 242.08 157.37 242.14 157.67 242.32C157.97 242.5 158.4 242.74 158.93 243.12C160.449 244.162 161.851 245.366 163.11 246.71C164.996 248.702 166.522 251.006 167.62 253.52C168.257 255.011 168.742 256.562 169.07 258.15C169.392 259.861 169.536 261.6 169.5 263.34C169.44 266.698 168.801 270.02 167.61 273.16C166.664 275.757 165.094 278.081 163.04 279.93C161.638 281.15 159.965 282.017 158.16 282.46C157.669 282.571 157.171 282.652 156.67 282.7C156.498 282.724 156.324 282.734 156.15 282.73Z" fill="#8471B0"/>
<path d="M166.8 385.64L117.32 392.83C98.7301 398.09 79.1501 399.63 58.6801 397.83L133.15 432.57L163.05 433.03C163.05 433.03 172.15 433.03 173.74 425.09C175.33 417.15 177.1 392.97 177.1 392.97C177.1 392.97 171.19 387.85 166.8 385.64Z" fill="#263238"/>
<g opacity="0.3">
<path d="M166.65 406.47C167.468 411.425 167.763 416.453 167.53 421.47C169.05 419.802 170.17 417.809 170.804 415.643C171.438 413.477 171.57 411.195 171.19 408.97C170.76 406.53 169.74 403.84 171.02 401.71C171.88 400.28 174.15 398.64 173.82 397.01C173.82 397.01 171.82 397.01 170.03 396.94C168.58 396.88 165.57 396.79 165.57 396.79C166.865 399.901 167.145 403.341 166.37 406.62" fill="black"/>
</g>
<path d="M131.53 304.83L155.57 302.23L159.97 306.23L142.81 316.33L135.24 320.25L127.76 317.98L125.39 313.52L131.53 304.83Z" fill="#FFBF9D"/>
<path d="M99.1201 334.1C99.1201 334.1 106.66 319.64 108.52 316.48C111.7 311.09 117.64 308.04 117.64 308.04L131.53 304.83C131.53 304.83 130.09 311.83 138.73 312.27C149.73 312.88 156.56 302.34 156.56 302.34C156.56 302.34 169.1 303.63 172.56 305.08C176.02 306.53 185.82 310.64 187.26 323.66L190.62 344.93L164.12 346.93L164.48 375.25L153.22 384.46C153.22 384.46 120.89 395.59 118.82 396.32C117.82 396.67 118.08 382.93 115.77 371.15L111.41 360.56C109.645 356.33 108.601 351.835 108.32 347.26C108.15 344.26 108.23 341.96 108.23 341.96C108.23 341.96 101.43 339.63 99.1201 334.1Z" fill="#8471B0"/>
<path d="M120 385.22L164.43 371.89L164.12 346.95L186.74 345.23C186.74 345.23 184.94 358.15 184.67 364.77C184.29 374.3 179.67 387.62 176.67 390.44C173.67 393.26 118.85 396.34 118.85 396.34L120 385.22Z" fill="#FFBF9D"/>
<path d="M94.8001 393.06C95.0144 393.427 95.3548 393.703 95.7577 393.837C96.1606 393.972 96.5987 393.955 96.9901 393.79C97.9901 393.39 97.7201 391.37 97.7201 391.37L102.45 390.21C102.45 390.21 108.98 393.75 111.45 396.21C113.92 398.67 119.35 396.1 119.35 396.1L120.48 385.73L111.05 378.44C111.05 378.44 111.63 378.88 110.9 377.44C110.17 376 107.45 376.78 107.45 376.78C106.97 376.07 105.14 375.95 105.14 375.95L97.4701 377.44C96.6918 377.591 95.9573 377.915 95.3205 378.388C94.6837 378.86 94.1608 379.469 93.7901 380.17L90.9201 385.6C90.9201 385.6 89.4801 389.46 89.8301 390.31C89.981 390.662 90.2559 390.946 90.6025 391.108C90.9492 391.27 91.3434 391.299 91.7101 391.19C91.7101 391.19 92.2801 393.61 92.9301 393.64C93.5869 393.559 94.2218 393.352 94.8001 393.03V393.06Z" fill="#FFBF9D"/>
<path d="M110.69 384.46C110.69 384.54 109.69 384.52 108.01 384.72C105.871 384.993 103.778 385.554 101.79 386.39C100.698 386.856 99.6452 387.408 98.6401 388.04C97.7501 388.63 96.8101 389.14 96.5601 389.85C96.5062 390.003 96.4926 390.167 96.5206 390.326C96.5487 390.485 96.6174 390.635 96.7201 390.76C96.8782 390.968 97.0938 391.124 97.3401 391.21C97.7601 391.34 98.0101 391.21 98.0301 391.21C98.0501 391.21 97.8001 391.44 97.2901 391.35C96.9882 391.283 96.7153 391.122 96.5101 390.89C96.3629 390.732 96.2596 390.538 96.2105 390.327C96.1614 390.117 96.1682 389.897 96.2301 389.69C96.4008 389.224 96.7074 388.82 97.1101 388.53C97.5101 388.22 97.9301 387.91 98.4001 387.6C101.265 385.724 104.556 384.599 107.97 384.33C108.878 384.226 109.796 384.27 110.69 384.46Z" fill="#FF9A6C"/>
<path d="M111.62 389.35C111.62 389.49 108.46 389.61 104.62 390.13C100.78 390.65 97.7001 391.37 97.6201 391.23C98.2547 390.925 98.9274 390.706 99.6201 390.58C101.241 390.172 102.883 389.859 104.54 389.64C106.198 389.415 107.867 389.285 109.54 389.25C110.235 389.188 110.935 389.222 111.62 389.35Z" fill="#FF9A6C"/>
<path d="M94.8302 392.86C94.749 392.596 94.6954 392.325 94.6702 392.05C94.5671 391.297 94.507 390.539 94.4902 389.78C94.4814 389.251 94.5148 388.723 94.5902 388.2C94.6828 387.584 94.8969 386.993 95.2202 386.46C95.8854 385.227 96.7896 384.139 97.8802 383.26C98.9589 382.378 100.158 381.654 101.44 381.11C102.503 380.715 103.612 380.457 104.74 380.34C105.74 380.23 106.46 380.2 107 380.17C107.275 380.129 107.555 380.129 107.83 380.17C106.841 380.396 105.839 380.563 104.83 380.67C103.742 380.83 102.675 381.111 101.65 381.51C100.42 382.059 99.2693 382.772 98.2302 383.63C97.1937 384.464 96.3192 385.48 95.6502 386.63C95.1163 387.578 94.8502 388.653 94.8802 389.74C94.8002 391.67 94.9402 392.86 94.8302 392.86Z" fill="#FF9A6C"/>
<path d="M104.92 377.97C104.92 378.05 103.77 378.17 101.92 378.52C100.07 378.87 97.3201 379.28 95.9201 381.86C94.4912 383.817 93.3371 385.96 92.4901 388.23C92.2261 389.195 92.0554 390.183 91.9802 391.18C91.8867 390.917 91.8493 390.638 91.8702 390.36C91.852 389.607 91.9464 388.855 92.1502 388.13C92.9112 385.78 94.0457 383.569 95.5102 381.58C95.8993 380.978 96.3667 380.429 96.9002 379.95C97.4147 379.509 98.0086 379.169 98.6502 378.95C99.7016 378.585 100.787 378.327 101.89 378.18C102.887 377.984 103.905 377.913 104.92 377.97Z" fill="#FF9A6C"/>
<path d="M109.59 394.73C109.417 394.639 109.253 394.532 109.1 394.41L107.73 393.48C106.004 392.343 104.214 391.304 102.37 390.37H102.48L97.7601 391.56L97.9101 391.34C97.9552 391.732 97.9552 392.128 97.9101 392.52C97.8806 392.952 97.7241 393.366 97.4601 393.71C97.2962 393.883 97.0833 394.001 96.8501 394.05C96.6352 394.125 96.4073 394.156 96.1801 394.14C95.7106 394.106 95.2679 393.908 94.9301 393.58C94.8482 393.495 94.7714 393.404 94.7001 393.31V393.24L94.9801 393.32L94.8301 393.39C94.6358 393.492 94.4354 393.582 94.2301 393.66C94.0209 393.742 93.8072 393.812 93.5901 393.87C93.4758 393.904 93.3587 393.927 93.2401 393.94C93.0884 393.965 92.9327 393.948 92.7901 393.89C92.5618 393.745 92.381 393.537 92.2701 393.29C92.1593 393.083 92.0624 392.87 91.9801 392.65C91.812 392.217 91.675 391.772 91.5701 391.32L91.8601 391.49C91.5414 391.588 91.2019 391.596 90.879 391.513C90.556 391.43 90.2623 391.259 90.0301 391.02C89.7887 390.765 89.6468 390.431 89.6301 390.08C89.6294 389.764 89.6595 389.45 89.7201 389.14C89.9877 387.936 90.3419 386.753 90.7801 385.6L92.3101 382.7L93.3101 380.87C93.6066 380.237 93.9686 379.637 94.3901 379.08C94.8485 378.544 95.4095 378.105 96.0401 377.79C96.6552 377.507 97.3091 377.319 97.9801 377.23L105.2 375.84H105.26C105.704 375.874 106.143 375.954 106.57 376.08C107.023 376.18 107.433 376.422 107.74 376.77L107.46 376.71C107.841 376.499 108.267 376.384 108.703 376.373C109.138 376.363 109.569 376.458 109.96 376.65C110.636 377.077 111.128 377.74 111.34 378.51L111.27 378.42L117.77 383.42L119.52 384.8C119.731 384.953 119.928 385.124 120.11 385.31C119.88 385.191 119.663 385.051 119.46 384.89L117.65 383.58L111.05 378.72H111V378.65C110.814 377.98 110.382 377.405 109.79 377.04C109.46 376.882 109.097 376.805 108.732 376.817C108.366 376.83 108.009 376.93 107.69 377.11L107.52 377.19L107.41 377.05C107.156 376.787 106.828 376.605 106.47 376.53C106.071 376.42 105.663 376.349 105.25 376.32H105.31L98.0901 377.74C97.4598 377.822 96.8459 378.001 96.2701 378.27C95.7025 378.551 95.1987 378.946 94.7901 379.43C94.3963 379.962 94.061 380.536 93.7901 381.14L92.7901 382.97C92.2601 383.97 91.7901 384.97 91.2601 385.87C90.8477 386.999 90.5135 388.155 90.2601 389.33C90.2027 389.603 90.1725 389.881 90.1701 390.16C90.1835 390.4 90.2829 390.627 90.4501 390.8C90.6221 390.972 90.8374 391.095 91.0733 391.155C91.3092 391.214 91.5569 391.209 91.7901 391.14L92.0301 391.08V391.31C92.1401 391.74 92.2701 392.18 92.4201 392.59C92.5299 392.965 92.7289 393.308 93.0001 393.59C93.0654 393.609 93.1349 393.609 93.2001 393.59L93.4901 393.53C93.6922 393.485 93.8897 393.421 94.0801 393.34C94.2701 393.27 94.4601 393.18 94.6501 393.09L94.7901 393.03L95.0801 393.11V393.16C95.1346 393.238 95.1948 393.311 95.2601 393.38C95.4465 393.579 95.6858 393.72 95.9497 393.787C96.2137 393.855 96.4914 393.845 96.7501 393.76C96.9098 393.733 97.0568 393.656 97.1701 393.54C97.5226 392.937 97.6535 392.229 97.5401 391.54V391.36H97.7001L102.44 390.24H102.5C104.343 391.199 106.117 392.285 107.81 393.49C108.4 393.92 108.81 394.26 109.14 394.49C109.296 394.559 109.446 394.639 109.59 394.73Z" fill="#FF9A6C"/>
<path d="M86.4901 401.15C86.4901 401.15 55.1402 391.3 45.3002 388.15C28.3002 382.65 17.2401 388.21 13.7401 394.27C9.20015 402.14 20.0901 417.49 24.2901 421.02C36.7201 431.47 58.0301 432.88 58.0301 432.88L134.65 432.74L112.32 402.36L86.4901 401.15Z" fill="#263238"/>
<path d="M91.1902 415.37C78.4224 416.856 65.4861 415.095 53.5802 410.25C51.5489 409.332 49.4574 408.553 47.3201 407.92C45.2073 407.387 43.0171 407.232 40.8501 407.46C39.9902 407.482 39.1433 407.676 38.36 408.032C37.5766 408.388 36.8728 408.897 36.2901 409.53C34.7601 411.53 35.5401 414.41 36.3901 416.79C37.3901 419.59 38.3901 422.45 40.3901 424.69C42.6601 427.3 45.9601 428.8 49.2701 429.84C55.7401 431.84 62.5701 432.47 69.3501 432.73L92.6301 431.46L91.1902 415.37Z" fill="#E0E0E0"/>
<path d="M46.2302 407.93C46.3831 408.118 46.5016 408.331 46.5802 408.56C46.8505 409.157 47.0583 409.78 47.2001 410.42C47.7028 412.548 47.6145 414.773 46.9448 416.854C46.2751 418.936 45.0494 420.794 43.4002 422.23C42.9092 422.66 42.3804 423.045 41.8202 423.38C41.4102 423.61 41.1801 423.71 41.1601 423.68C41.1401 423.65 42.0001 423.1 43.1601 421.97C44.6821 420.515 45.8167 418.703 46.4611 416.698C47.1054 414.693 47.2392 412.559 46.8501 410.49C46.5701 408.89 46.1502 407.96 46.2302 407.93Z" fill="#263238"/>
<path d="M166.51 399.23C164.69 394.07 164.39 386.49 153.16 382.85C141.93 379.21 133.45 386.19 127.68 388.61C121.91 391.03 90.3801 408.33 90.3801 408.33C90.3801 408.33 84.4401 418.92 86.1301 423.6C87.8201 428.28 95.5001 432.9 95.5001 432.9H130.77C139.87 432.9 156.77 432.59 156.77 432.59C159.033 428.881 161.06 425.033 162.84 421.07L163.14 419.55C163.17 418.34 168.32 404.39 166.51 399.23Z" fill="#263238"/>
<path d="M146.97 426.02C146.924 426.199 146.835 426.364 146.71 426.5C146.368 426.896 145.979 427.249 145.55 427.55C143.975 428.636 142.301 429.57 140.55 430.34C139.354 430.898 138.125 431.382 136.87 431.79C135.417 432.247 133.929 432.582 132.42 432.79C128.978 433.133 125.518 433.266 122.06 433.19C114.73 433.31 108.06 433.59 103.26 433.53C100.85 433.53 98.9001 433.42 97.5601 433.28C97.0432 433.235 96.5291 433.161 96.0201 433.06C95.8398 433.038 95.6622 432.998 95.4901 432.94C95.4901 432.89 96.2301 433.02 97.5701 433.09C98.9101 433.16 100.86 433.21 103.26 433.19C108.07 433.19 114.71 432.82 122.06 432.7C125.501 432.774 128.943 432.654 132.37 432.34C133.852 432.158 135.317 431.857 136.75 431.44C137.997 431.055 139.219 430.594 140.41 430.06C142.149 429.328 143.822 428.449 145.41 427.43C145.842 427.141 146.241 426.806 146.6 426.43C146.88 426.19 146.94 426.01 146.97 426.02Z" fill="#263238"/>
<path d="M95.5001 432.9L95.0301 432.65C94.7301 432.48 94.2901 432.2 93.7201 431.83C92.0617 430.748 90.5082 429.512 89.0801 428.14C88.0456 427.148 87.1628 426.009 86.4601 424.76C85.742 423.196 85.5592 421.439 85.9401 419.76C86.7977 415.74 88.2361 411.866 90.2101 408.26V408.21C95.9901 405.03 102.62 401.42 109.86 397.53C113.48 395.59 117.25 393.58 121.17 391.53C123.17 390.53 125.17 389.53 127.17 388.53C129.17 387.53 131.22 386.53 133.29 385.45C136.15 383.883 139.217 382.728 142.4 382.02C143.964 381.708 145.556 381.564 147.15 381.59C148.71 381.637 150.26 381.858 151.77 382.25C154.699 382.971 157.449 384.285 159.85 386.11C160.967 387.035 161.955 388.104 162.79 389.29C163.558 390.459 164.192 391.71 164.68 393.02C165.18 394.3 165.53 395.59 165.89 396.85C166.303 398.074 166.637 399.323 166.89 400.59C167.047 403.01 166.845 405.439 166.29 407.8C165.84 410.05 165.29 412.15 164.72 414.1C164.44 415.1 164.16 416.03 163.9 416.94C163.64 417.85 163.34 418.75 163.2 419.55C163.08 420.12 162.99 420.55 162.89 421.06C161.927 424.15 160.566 427.102 158.84 429.84C158.229 430.819 157.508 431.725 156.69 432.54L156.82 432.36C156.93 432.23 157.07 432.07 157.24 431.85C157.77 431.183 158.264 430.489 158.72 429.77C160.386 427.015 161.7 424.062 162.63 420.98C163.2 420.5 163.09 420.03 162.92 419.46C163.095 418.548 163.322 417.646 163.6 416.76L164.41 413.93C164.95 411.93 165.49 409.87 165.93 407.64C166.463 405.317 166.651 402.928 166.49 400.55C166.227 399.309 165.893 398.083 165.49 396.88C165.12 395.62 164.76 394.34 164.27 393.09C163.793 391.811 163.172 390.59 162.42 389.45C161.609 388.303 160.647 387.27 159.56 386.38C155.964 383.685 151.631 382.15 147.14 381.98C145.582 381.954 144.027 382.099 142.5 382.41C139.355 383.108 136.324 384.249 133.5 385.8C131.5 386.8 129.5 388 127.35 388.89C125.2 389.78 123.35 390.84 121.35 391.89C117.44 393.89 113.66 395.89 110.04 397.89L90.3601 408.5L90.4301 408.42C88.4619 411.984 87.017 415.814 86.1401 419.79C85.7456 421.412 85.904 423.119 86.5901 424.64C87.2634 425.878 88.1197 427.008 89.1301 427.99C90.5325 429.373 92.0552 430.628 93.6801 431.74L94.9601 432.6C95.3201 432.79 95.5001 432.9 95.5001 432.9Z" fill="#263238"/>
<path d="M152.9 419.81C152.9 419.81 163.41 421.07 162.48 426.21C161.55 431.35 158.11 433.08 158.11 433.08L129.55 433.14C129.55 433.14 146.6 431.96 152.9 419.81Z" fill="#E0E0E0"/>
<path d="M153.92 417.32C153.918 417.821 153.809 418.315 153.6 418.77C153.213 419.92 152.639 420.998 151.9 421.96C150.904 423.363 149.511 424.436 147.9 425.04C149.226 424.045 150.443 422.912 151.53 421.66C152.447 420.283 153.246 418.831 153.92 417.32Z" fill="#263238"/>
<path d="M150.32 419.33C150.337 420.62 149.99 421.888 149.32 422.99C148.807 424.158 148.022 425.187 147.03 425.99C146.92 425.9 147.95 424.57 148.88 422.74C149.81 420.91 150.14 419.31 150.32 419.33Z" fill="#263238"/>
<path d="M163.68 431.65C163.6 431.65 164.28 430.31 165.1 428.1C167.253 422.329 167.964 416.119 167.17 410.01C166.86 407.68 166.5 406.25 166.58 406.23C166.738 406.546 166.853 406.883 166.92 407.23C167.167 408.135 167.364 409.053 167.51 409.98C168.511 416.142 167.791 422.461 165.43 428.24C165.074 429.092 164.67 429.923 164.22 430.73C164.077 431.057 163.896 431.366 163.68 431.65Z" fill="#8471B0"/>
<g opacity="0.3">
<path d="M157.74 417.04C157.66 416.35 157.39 415.53 156.74 415.39C155.9 415.22 155.33 416.18 155 416.96C151.32 425.33 139.43 431.86 130.32 432.73C134.738 432.72 139.149 432.359 143.51 431.65C147.229 431.093 150.716 429.499 153.57 427.05C154.989 425.815 156.104 424.27 156.827 422.533C157.551 420.797 157.863 418.917 157.74 417.04Z" fill="black"/>
</g>
<path d="M88.1601 405.65C86.4186 405.161 84.725 404.515 83.1001 403.72C81.4112 403.08 79.7844 402.287 78.2401 401.35C79.9794 401.842 81.6725 402.484 83.3001 403.27C84.9896 403.913 86.6164 404.71 88.1601 405.65Z" fill="#263238"/>
<g opacity="0.2">
<path d="M98.3202 401.23C84.7202 398.63 71.0702 396.32 57.3702 394.3L47.1702 397.52C50.0302 402.84 55.6802 406.23 61.5502 407.63C67.4202 409.03 73.5502 408.7 79.5502 408.15C86.1702 407.54 92.9702 406.61 98.7302 403.29C99.1702 403.04 99.6702 402.66 99.6102 402.15C99.5502 401.64 98.9102 401.34 98.3202 401.23Z" fill="black"/>
</g>
<path d="M31.3801 360.73L48.5201 398.63C48.8668 399.402 49.4281 400.059 50.1373 400.522C50.8464 400.984 51.6734 401.234 52.5201 401.24L102.52 401.89L108.82 398.5L98.9501 397.78L83.5901 360.92C83.351 360.347 82.9487 359.856 82.4331 359.509C81.9175 359.163 81.3114 358.975 80.6901 358.97L32.8001 358.61C32.5447 358.601 32.2911 358.657 32.0634 358.773C31.8357 358.889 31.6416 359.062 31.4993 359.274C31.357 359.487 31.2714 359.732 31.2506 359.987C31.2297 360.241 31.2743 360.497 31.3801 360.73Z" fill="#E0E0E0"/>
<path d="M31.3802 360.73C31.2984 360.589 31.2473 360.432 31.2302 360.27C31.1985 360.03 31.2247 359.786 31.3064 359.558C31.3882 359.33 31.5232 359.125 31.7002 358.96C31.9735 358.706 32.3277 358.558 32.7002 358.54H37.0902L57.1402 358.61L71.0802 358.68L78.8702 358.73H80.8702C81.6108 358.783 82.3135 359.078 82.8702 359.57C83.4066 360.073 83.8029 360.707 84.0201 361.41L84.8401 363.41C89.2101 373.88 94.0401 385.46 99.1601 397.7L98.9202 397.53L108.45 398.23H108.79L109.79 398.3L108.94 398.76L102.64 402.15H102.57H102.5L64.6002 401.63L56.1402 401.51C54.7602 401.51 53.4402 401.51 52.0702 401.43C51.3859 401.349 50.7277 401.119 50.1419 400.756C49.5562 400.394 49.0572 399.907 48.6802 399.33C46.4502 394.64 44.5902 390.33 42.7802 386.33L34.4002 367.59C33.4002 365.4 32.6802 363.69 32.1602 362.5C31.9102 361.94 31.7302 361.5 31.5902 361.18C31.4502 360.86 31.4102 360.72 31.4102 360.72C31.4956 360.862 31.5724 361.009 31.6402 361.16L32.2602 362.46C32.8002 363.63 33.5802 365.33 34.5902 367.46L43.1302 386.14C44.9402 390.07 46.8802 394.49 49.0602 399.05C49.3995 399.57 49.8499 400.008 50.3791 400.334C50.9082 400.659 51.5028 400.862 52.1202 400.93C53.4002 400.99 54.7902 400.98 56.1202 401L64.5802 401.1L102.48 401.56H102.34L108.64 398.16L108.76 398.69H108.42L98.8902 398H98.7202L98.6502 397.85C93.5602 385.59 88.7402 374.01 84.3801 363.53L83.5702 361.58C83.3918 360.944 83.0466 360.367 82.5702 359.91C82.0947 359.481 81.489 359.224 80.8502 359.18H78.8502L71.0602 359.11L57.1302 358.97L37.0602 358.73H33.9202H32.6802C32.4821 358.737 32.2876 358.785 32.1085 358.87C31.9294 358.955 31.7695 359.075 31.6385 359.224C31.5075 359.373 31.4082 359.547 31.3466 359.735C31.285 359.924 31.2624 360.123 31.2802 360.32C31.3059 360.458 31.3393 360.595 31.3802 360.73Z" fill="#263238"/>
<path d="M97.4402 401.82C97.3469 401.69 97.2697 401.549 97.2102 401.4L96.6402 400.18C96.1402 399.04 95.4602 397.5 94.6402 395.64C92.9702 391.79 90.7002 386.47 88.2602 380.55C85.8202 374.63 83.6602 369.26 82.1702 365.35C81.4202 363.35 80.8301 361.8 80.4501 360.69C80.2701 360.18 80.1302 359.76 80.0102 359.41C79.9542 359.261 79.9139 359.107 79.8902 358.95C79.9817 359.08 80.0557 359.221 80.1102 359.37L80.6301 360.62C81.1001 361.78 81.7302 363.33 82.4902 365.22C84.1102 369.16 86.3002 374.48 88.7102 380.37C91.1202 386.26 93.3402 391.56 94.9602 395.5L96.8302 400.1C97.0202 400.61 97.1802 401.02 97.3102 401.36C97.3795 401.505 97.4235 401.66 97.4402 401.82Z" fill="#263238"/>
<path d="M66.4402 379.1C66.4421 379.587 66.2993 380.064 66.0297 380.47C65.7602 380.876 65.3761 381.193 64.9262 381.381C64.4763 381.568 63.9808 381.618 63.5027 381.523C63.0246 381.429 62.5853 381.194 62.2407 380.849C61.8961 380.505 61.6616 380.066 61.567 379.587C61.4724 379.109 61.5219 378.614 61.7093 378.164C61.8968 377.714 62.2136 377.33 62.6197 377.06C63.0258 376.791 63.5028 376.648 63.9902 376.65C64.6399 376.65 65.2631 376.908 65.7226 377.368C66.182 377.827 66.4402 378.45 66.4402 379.1Z" fill="white"/>
<path d="M115.09 318.13C115.17 318.13 114.45 319.52 113.44 321.76C110.797 327.607 109.07 333.827 108.32 340.2C108.02 342.65 107.94 344.2 107.85 344.2C107.797 343.842 107.797 343.478 107.85 343.12C107.85 342.43 107.85 341.43 107.99 340.19C108.555 333.736 110.312 327.443 113.17 321.63C113.72 320.52 114.17 319.63 114.56 319.05C114.699 318.723 114.877 318.414 115.09 318.13Z" fill="#263238"/>
<path d="M190.62 344.93C190.442 344.985 190.257 345.015 190.07 345.02L188.48 345.17L182.54 345.67L162.23 347.2H161.97V346.94C161.8 344.24 161.62 341.39 161.44 338.47C161.15 333.37 160.9 328.47 160.82 324.08C160.562 320.125 161.462 316.181 163.41 312.73C164.748 310.402 166.722 308.505 169.1 307.26C169.742 306.938 170.411 306.674 171.1 306.47C171.34 306.395 171.583 306.335 171.83 306.29C171.83 306.37 170.83 306.58 169.18 307.44C166.887 308.728 164.994 310.624 163.71 312.92C161.857 316.336 161.027 320.214 161.32 324.09C161.42 328.5 161.68 333.36 161.97 338.46C162.15 341.38 162.32 344.23 162.49 346.92L162.21 346.68L182.54 345.34L188.54 344.99L190.13 344.93H190.62Z" fill="#263238"/>
<path d="M140.79 362.25C140.482 362.19 140.185 362.082 139.91 361.93C139.566 361.786 139.232 361.619 138.91 361.43C138.479 361.198 138.061 360.941 137.66 360.66C136.596 359.942 135.614 359.111 134.73 358.18C133.661 357.027 132.722 355.759 131.93 354.4C131.166 353.026 130.559 351.57 130.12 350.06C129.772 348.827 129.557 347.559 129.48 346.28C129.451 345.79 129.451 345.3 129.48 344.81C129.482 344.439 129.508 344.068 129.56 343.7C129.569 343.382 129.63 343.068 129.74 342.77C129.84 342.77 129.67 344.12 129.88 346.25C130.006 347.494 130.25 348.723 130.61 349.92C131.07 351.384 131.676 352.798 132.42 354.14C133.186 355.463 134.087 356.703 135.11 357.84C135.961 358.761 136.895 359.601 137.9 360.35C139.6 361.62 140.84 362.16 140.79 362.25Z" fill="#263238"/>
</svg>
