<svg width="1901" height="320" viewBox="0 0 1901 320" fill="none" xmlns="http://www.w3.org/2000/svg">
<path d="M0 32L31.6833 58.7C63.3667 85 126.733 139 190.1 176C253.467 213 316.833 235 380.2 224C443.567 213 506.933 171 570.3 176C633.667 181 697.033 235 760.4 266.7C823.767 299 887.133 309 950.5 266.7C1013.87 224 1077.23 128 1140.6 112C1203.97 96 1267.33 160 1330.7 170.7C1394.07 181 1457.43 139 1520.8 117.3C1584.17 96 1647.53 96 1710.9 106.7C1774.27 117 1837.63 139 1869.32 149.3L1901 160V320H1869.32C1837.63 320 1774.27 320 1710.9 320C1647.53 320 1584.17 320 1520.8 320C1457.43 320 1394.07 320 1330.7 320C1267.33 320 1203.97 320 1140.6 320C1077.23 320 1013.87 320 950.5 320C887.133 320 823.767 320 760.4 320C697.033 320 633.667 320 570.3 320C506.933 320 443.567 320 380.2 320C316.833 320 253.467 320 190.1 320C126.733 320 63.3667 320 31.6833 320H0V32Z" fill="#8471B0"/>
</svg>
