<svg width="24" height="24" viewBox="0 0 24 24" fill="none" xmlns="http://www.w3.org/2000/svg">
<path d="M22.3833 0.333336H1.61665C1.27629 0.333336 0.949865 0.468544 0.709193 0.709216C0.468521 0.949887 0.333313 1.27631 0.333313 1.61667V22.3833C0.333313 22.7237 0.468521 23.0501 0.709193 23.2908C0.949865 23.5315 1.27629 23.6667 1.61665 23.6667H12.7933V14.625H9.75998V11.125H12.7933V8.5C12.7305 7.88372 12.8032 7.26115 13.0065 6.67596C13.2097 6.09078 13.5385 5.55714 13.9699 5.11248C14.4012 4.66783 14.9246 4.32292 15.5033 4.10195C16.082 3.88098 16.7021 3.7893 17.32 3.83334C18.228 3.82775 19.1356 3.87449 20.0383 3.97334V7.12334H18.1833C16.7133 7.12334 16.4333 7.82334 16.4333 8.83834V11.09H19.9333L19.4783 14.59H16.4333V23.6667H22.3833C22.5518 23.6667 22.7187 23.6335 22.8744 23.569C23.0301 23.5045 23.1716 23.41 23.2908 23.2908C23.4099 23.1716 23.5045 23.0301 23.569 22.8744C23.6335 22.7187 23.6666 22.5519 23.6666 22.3833V1.61667C23.6666 1.44814 23.6335 1.28126 23.569 1.12556C23.5045 0.969858 23.4099 0.828384 23.2908 0.709216C23.1716 0.590047 23.0301 0.495517 22.8744 0.431024C22.7187 0.36653 22.5518 0.333336 22.3833 0.333336Z" fill="#A5A5A5"/>
</svg>
