<svg width="24" height="24" viewBox="0 0 24 24" fill="none" xmlns="http://www.w3.org/2000/svg">
<path d="M7.09998 0.333336H16.9C20.6333 0.333336 23.6666 3.36667 23.6666 7.1V16.9C23.6666 18.6946 22.9537 20.4158 21.6847 21.6848C20.4157 22.9538 18.6946 23.6667 16.9 23.6667H7.09998C3.36665 23.6667 0.333313 20.6333 0.333313 16.9V7.1C0.333313 5.30537 1.04623 3.58424 2.31522 2.31525C3.58422 1.04625 5.30535 0.333336 7.09998 0.333336ZM6.86665 2.66667C5.75274 2.66667 4.68445 3.10917 3.8968 3.89682C3.10915 4.68447 2.66665 5.75276 2.66665 6.86667V17.1333C2.66665 19.455 4.54498 21.3333 6.86665 21.3333H17.1333C18.2472 21.3333 19.3155 20.8908 20.1032 20.1032C20.8908 19.3155 21.3333 18.2472 21.3333 17.1333V6.86667C21.3333 4.545 19.455 2.66667 17.1333 2.66667H6.86665ZM18.125 4.41667C18.5118 4.41667 18.8827 4.57031 19.1562 4.84381C19.4297 5.1173 19.5833 5.48823 19.5833 5.875C19.5833 6.26178 19.4297 6.63271 19.1562 6.9062C18.8827 7.17969 18.5118 7.33334 18.125 7.33334C17.7382 7.33334 17.3673 7.17969 17.0938 6.9062C16.8203 6.63271 16.6666 6.26178 16.6666 5.875C16.6666 5.48823 16.8203 5.1173 17.0938 4.84381C17.3673 4.57031 17.7382 4.41667 18.125 4.41667ZM12 6.16667C13.5471 6.16667 15.0308 6.78125 16.1248 7.87521C17.2187 8.96918 17.8333 10.4529 17.8333 12C17.8333 13.5471 17.2187 15.0308 16.1248 16.1248C15.0308 17.2188 13.5471 17.8333 12 17.8333C10.4529 17.8333 8.96915 17.2188 7.87519 16.1248C6.78123 15.0308 6.16665 13.5471 6.16665 12C6.16665 10.4529 6.78123 8.96918 7.87519 7.87521C8.96915 6.78125 10.4529 6.16667 12 6.16667ZM12 8.5C11.0717 8.5 10.1815 8.86875 9.52511 9.52513C8.86873 10.1815 8.49998 11.0717 8.49998 12C8.49998 12.9283 8.86873 13.8185 9.52511 14.4749C10.1815 15.1313 11.0717 15.5 12 15.5C12.9282 15.5 13.8185 15.1313 14.4749 14.4749C15.1312 13.8185 15.5 12.9283 15.5 12C15.5 11.0717 15.1312 10.1815 14.4749 9.52513C13.8185 8.86875 12.9282 8.5 12 8.5Z" fill="#A5A5A5"/>
</svg>
